<?xml version="1.0" encoding="utf-8"?>
<!-- Generator: Adobe Illustrator 22.1.0, SVG Export Plug-In . SVG Version: 6.00 Build 0)  -->
<svg version="1.1" id="Layer_1" xmlns="http://www.w3.org/2000/svg" xmlns:xlink="http://www.w3.org/1999/xlink" x="0px" y="0px"
	 viewBox="0 0 480 480" style="enable-background:new 0 0 480 480;" xml:space="preserve">
<style type="text/css">
	.st0{fill:#0F0F0F;}
</style>
<path class="st0" d="M480,213.8c0,113.2-91.8,205-205,205S70,327,70,213.8v-82.5H0v-70h210v70h-70v82.5c0,74.6,60.4,135,135,135
	s135-60.4,135-135c0-4.2-0.2-8.4-0.6-12.5h70.2C479.9,205.4,480,209.6,480,213.8z"/>
<polygon class="st0" points="480,61.3 480,131.3 410,131.3 410,201.3 340,201.3 340,131.3 270,131.3 270,61.3 "/>
</svg>
