<?xml version="1.0" standalone="no"?>
<!DOCTYPE svg PUBLIC "-//W3C//DTD SVG 20010904//EN"
 "http://www.w3.org/TR/2001/REC-SVG-20010904/DTD/svg10.dtd">
<svg version="1.0" xmlns="http://www.w3.org/2000/svg"
 width="700.000000pt" height="700.000000pt" viewBox="0 0 700.000000 700.000000"
 preserveAspectRatio="xMidYMid meet">
<metadata>
Created by potrace 1.11, written by Peter Selinger 2001-2013
</metadata>
<g transform="translate(0.000000,700.000000) scale(0.100000,-0.100000)"
fill="#000000" stroke="none">
<path d="M0 5596 l0 -511 510 1 510 0 1 -660 c0 -364 2 -683 4 -711 10 -130
15 -180 30 -280 82 -547 323 -1076 683 -1495 211 -246 495 -482 772 -642 139
-81 200 -111 360 -180 98 -42 372 -130 485 -154 61 -14 204 -38 287 -49 149
-20 465 -26 626 -11 597 53 1155 278 1621 654 224 180 469 449 608 667 18 27
36 55 40 60 32 38 160 280 208 390 9 22 23 51 30 65 45 86 155 468 179 620 3
19 7 44 10 55 2 11 7 49 11 85 4 36 9 74 12 85 7 28 14 451 8 467 -4 11 -104
13 -508 13 l-502 0 -3 510 -2 510 497 0 c274 -1 504 1 511 3 9 3 12 114 12
511 l0 507 -1524 0 c-838 -1 -1528 -4 -1531 -8 -6 -5 -11 -907 -6 -998 1 -13
64 -15 509 -15 l507 0 1 -497 c1 -274 4 -504 7 -511 4 -10 110 -12 505 -12
l500 0 5 -30 c9 -49 0 -344 -12 -423 -89 -592 -412 -1087 -915 -1402 -198
-124 -475 -232 -681 -264 -22 -4 -51 -8 -65 -10 -155 -25 -467 -26 -587 -1
-224 45 -287 63 -433 120 -239 95 -460 239 -640 416 -236 233 -371 447 -500
794 -34 92 -76 296 -88 426 -5 52 -8 387 -8 744 l1 650 502 0 c276 1 505 4
509 8 6 5 10 933 5 1003 -1 7 -456 10 -1531 10 l-1530 0 0 -510z"/>
</g>
</svg>
