<svg height="512pt" viewBox="0 -33 512 512" width="512pt" xmlns="http://www.w3.org/2000/svg"><path d="m512 10.300781v425.515625c0 5.6875-4.613281 10.304688-10.300781 10.304688h-491.398438c-5.6875 0-10.300781-4.617188-10.300781-10.304688v-425.515625c0-5.6875 4.613281-10.300781 10.300781-10.300781h491.398438c5.6875 0 10.300781 4.613281 10.300781 10.300781zm0 0" fill="#e3f4ff"/><path d="m250.847656 0v446.121094h-240.546875c-5.6875 0-10.300781-4.617188-10.300781-10.304688v-425.515625c0-5.6875 4.613281-10.300781 10.300781-10.300781zm0 0" fill="#4e7693"/><path d="m512 10.300781v425.515625c0 5.6875-4.613281 10.304688-10.300781 10.304688h-30.566407c5.6875 0 10.300782-4.617188 10.300782-10.304688v-425.515625c0-5.6875-4.613282-10.300781-10.300782-10.300781h30.566407c5.6875 0 10.300781 4.613281 10.300781 10.300781zm0 0" fill="#bddff4"/><path d="m512 10.300781v55.1875h-512v-55.1875c0-5.6875 4.613281-10.300781 10.300781-10.300781h491.398438c5.6875 0 10.300781 4.613281 10.300781 10.300781zm0 0" fill="#618baa"/><path d="m512 10.300781v55.1875h-30.566406v-55.1875c0-5.6875-4.613282-10.300781-10.300782-10.300781h30.566407c5.6875 0 10.300781 4.613281 10.300781 10.300781zm0 0" fill="#4e7693"/><path d="m150.292969 0v65.488281h-150.292969v-55.1875c0-5.6875 4.613281-10.300781 10.300781-10.300781zm0 0" fill="#fd6096"/><path d="m47.878906 40.390625c-.015625 0-.027344 0-.039062 0h-.109375c-4.265625-.023437-7.710938-3.496094-7.691407-7.761719.023438-4.257812 3.476563-7.691406 7.726563-7.691406h.039063.105468c4.269532.019531 7.710938 3.496094 7.691406 7.761719-.019531 4.253906-3.472656 7.691406-7.722656 7.691406zm0 0" fill="#fc3e81"/><path d="m76.21875 40.472656h-.109375c-4.265625 0-7.726563-3.460937-7.726563-7.726562s3.460938-7.726563 7.726563-7.726563h.109375c4.269531 0 7.726562 3.460938 7.726562 7.726563s-3.457031 7.726562-7.726562 7.726562zm0 0" fill="#fc3e81"/><path d="m104.5625 40.554688c-.011719 0-.023438 0-.035156 0h-.109375c-4.269531-.019532-7.710938-3.496094-7.691407-7.761719.019532-4.257813 3.476563-7.691407 7.726563-7.691407h.035156.109375c4.269532.019532 7.710938 3.496094 7.691406 7.761719-.019531 4.253907-3.472656 7.691407-7.726562 7.691407zm0 0" fill="#fc3e81"/><g fill="#38627c"><path d="m64.386719 223.296875h-25.828125c-4.269532 0-7.726563-3.457031-7.726563-7.726563 0-4.265624 3.460938-7.726562 7.726563-7.726562h25.828125c4.265625 0 7.726562 3.460938 7.726562 7.726562 0 4.269532-3.460937 7.726563-7.726562 7.726563zm0 0"/><path d="m210.671875 223.296875h-115.011719c-4.265625 0-7.726562-3.457031-7.726562-7.726563 0-4.265624 3.460937-7.726562 7.726562-7.726562h115.011719c4.269531 0 7.726563 3.460938 7.726563 7.726562 0 4.269532-3.457032 7.726563-7.726563 7.726563zm0 0"/><path d="m64.386719 254.886719h-25.828125c-4.269532 0-7.726563-3.457031-7.726563-7.726563 0-4.265625 3.460938-7.722656 7.726563-7.722656h25.828125c4.265625 0 7.726562 3.457031 7.726562 7.722656 0 4.269532-3.460937 7.726563-7.726562 7.726563zm0 0"/><path d="m210.671875 254.886719h-115.011719c-4.265625 0-7.726562-3.457031-7.726562-7.726563 0-4.265625 3.460937-7.722656 7.726562-7.722656h115.011719c4.269531 0 7.726563 3.457031 7.726563 7.722656 0 4.269532-3.457032 7.726563-7.726563 7.726563zm0 0"/><path d="m64.386719 401.527344h-25.828125c-4.269532 0-7.726563-3.460938-7.726563-7.726563s3.460938-7.726562 7.726563-7.726562h25.828125c4.265625 0 7.726562 3.460937 7.726562 7.726562s-3.460937 7.726563-7.726562 7.726563zm0 0"/><path d="m210.671875 401.527344h-115.011719c-4.265625 0-7.726562-3.460938-7.726562-7.726563s3.460937-7.726562 7.726562-7.726562h115.011719c4.269531 0 7.726563 3.460937 7.726563 7.726562s-3.457032 7.726563-7.726563 7.726563zm0 0"/><path d="m64.386719 117.527344h-25.828125c-4.269532 0-7.726563-3.460938-7.726563-7.726563 0-4.269531 3.460938-7.726562 7.726563-7.726562h25.828125c4.265625 0 7.726562 3.457031 7.726562 7.726562 0 4.265625-3.460937 7.726563-7.726562 7.726563zm0 0"/><path d="m210.671875 117.527344h-115.011719c-4.265625 0-7.726562-3.460938-7.726562-7.726563 0-4.269531 3.460937-7.726562 7.726562-7.726562h115.011719c4.269531 0 7.726563 3.457031 7.726563 7.726562 0 4.265625-3.457032 7.726563-7.726563 7.726563zm0 0"/><path d="m77.300781 147.335938h-25.828125c-4.269531 0-7.726562-3.457032-7.726562-7.726563 0-4.265625 3.460937-7.722656 7.726562-7.722656h25.828125c4.265625 0 7.726563 3.457031 7.726563 7.722656 0 4.269531-3.460938 7.726563-7.726563 7.726563zm0 0"/><path d="m178.992188 147.335938h-70.417969c-4.269531 0-7.726563-3.457032-7.726563-7.726563 0-4.265625 3.460938-7.722656 7.726563-7.722656h70.417969c4.269531 0 7.726562 3.457031 7.726562 7.722656 0 4.269531-3.457031 7.726563-7.726562 7.726563zm0 0"/><path d="m90.214844 177.148438h-25.828125c-4.269531 0-7.726563-3.460938-7.726563-7.726563 0-4.269531 3.457032-7.726563 7.726563-7.726563h25.828125c4.265625 0 7.722656 3.457032 7.722656 7.726563.003906 4.265625-3.457031 7.726563-7.722656 7.726563zm0 0"/><path d="m210.671875 177.148438h-89.183594c-4.269531 0-7.726562-3.460938-7.726562-7.726563 0-4.269531 3.460937-7.726563 7.726562-7.726563h89.183594c4.269531 0 7.726563 3.457032 7.726563 7.726563 0 4.265625-3.457032 7.726563-7.726563 7.726563zm0 0"/><path d="m64.386719 299.425781h-25.828125c-4.269532 0-7.726563-3.457031-7.726563-7.726562 0-4.265625 3.460938-7.722657 7.726563-7.722657h25.828125c4.265625 0 7.726562 3.457032 7.726562 7.722657 0 4.269531-3.460937 7.726562-7.726562 7.726562zm0 0"/><path d="m210.671875 299.425781h-115.011719c-4.265625 0-7.726562-3.457031-7.726562-7.726562 0-4.265625 3.460937-7.722657 7.726562-7.722657h115.011719c4.269531 0 7.726563 3.457032 7.726563 7.722657 0 4.269531-3.457032 7.726562-7.726563 7.726562zm0 0"/><path d="m77.300781 329.238281h-25.828125c-4.269531 0-7.726562-3.460937-7.726562-7.726562s3.460937-7.726563 7.726562-7.726563h25.828125c4.265625 0 7.726563 3.460938 7.726563 7.726563s-3.460938 7.726562-7.726563 7.726562zm0 0"/><path d="m178.992188 329.238281h-70.417969c-4.269531 0-7.726563-3.460937-7.726563-7.726562s3.460938-7.726563 7.726563-7.726563h70.417969c4.269531 0 7.726562 3.460938 7.726562 7.726563s-3.457031 7.726562-7.726562 7.726562zm0 0"/><path d="m90.214844 359.046875h-25.828125c-4.269531 0-7.726563-3.457031-7.726563-7.726563 0-4.265624 3.457032-7.722656 7.726563-7.722656h25.828125c4.265625 0 7.722656 3.457032 7.722656 7.722656.003906 4.269532-3.457031 7.726563-7.722656 7.726563zm0 0"/><path d="m210.671875 359.046875h-89.183594c-4.269531 0-7.726562-3.457031-7.726562-7.726563 0-4.265624 3.460937-7.722656 7.726562-7.722656h89.183594c4.269531 0 7.726563 3.457032 7.726563 7.722656 0 4.269532-3.457032 7.726563-7.726563 7.726563zm0 0"/></g><path d="m361.449219 297.328125h-64.8125c-4.265625 0-7.71875-3.453125-7.71875-7.714844v-64.8125c0-4.261719 3.457031-7.71875 7.71875-7.71875h64.8125c4.261719 0 7.714843 3.457031 7.714843 7.71875v64.8125c0 4.261719-3.453124 7.714844-7.714843 7.714844zm0 0" fill="#43a3f9"/><path d="m320.554688 245.636719h-11.574219c-4.265625 0-7.726563-3.460938-7.726563-7.726563s3.460938-7.726562 7.726563-7.726562h11.574219c4.265624 0 7.726562 3.460937 7.726562 7.726562s-3.460938 7.726563-7.726562 7.726563zm0 0" fill="#2593d6"/><path d="m482.59375 289.613281c0 4.261719-3.457031 7.714844-7.714844 7.714844h-64.816406c-4.261719 0-7.714844-3.453125-7.714844-7.714844v-64.8125c0-4.261719 3.453125-7.71875 7.714844-7.71875h64.816406c4.257813 0 7.714844 3.457031 7.714844 7.71875z" fill="#fdb659"/><path d="m433.980469 245.636719h-11.574219c-4.265625 0-7.722656-3.460938-7.722656-7.726563s3.457031-7.726562 7.722656-7.726562h11.574219c4.269531 0 7.726562 3.460937 7.726562 7.726562s-3.457031 7.726563-7.726562 7.726563zm0 0" fill="#fd9e28"/><path d="m361.449219 404.46875h-64.8125c-4.265625 0-7.71875-3.453125-7.71875-7.714844v-64.816406c0-4.261719 3.457031-7.714844 7.71875-7.714844h64.8125c4.261719 0 7.714843 3.453125 7.714843 7.714844v64.816406c0 4.261719-3.453124 7.714844-7.714843 7.714844zm0 0" fill="#fd8724"/><path d="m320.554688 352.773438h-11.574219c-4.265625 0-7.726563-3.457032-7.726563-7.722657 0-4.269531 3.460938-7.726562 7.726563-7.726562h11.574219c4.265624 0 7.726562 3.457031 7.726562 7.726562 0 4.265625-3.460938 7.722657-7.726562 7.722657zm0 0" fill="#e86c10"/><path d="m482.59375 396.753906c0 4.261719-3.457031 7.714844-7.714844 7.714844h-64.816406c-4.261719 0-7.714844-3.453125-7.714844-7.714844v-64.816406c0-4.261719 3.453125-7.714844 7.714844-7.714844h64.816406c4.257813 0 7.714844 3.453125 7.714844 7.714844z" fill="#27e6fc"/><path d="m433.980469 352.773438h-11.574219c-4.265625 0-7.722656-3.457032-7.722656-7.722657 0-4.269531 3.457031-7.726562 7.722656-7.726562h11.574219c4.269531 0 7.726562 3.457031 7.726562 7.726562 0 4.265625-3.457031 7.722657-7.726562 7.722657zm0 0" fill="#06c7f4"/><path d="m469.476562 189.4375h-172.839843c-4.265625 0-7.71875-3.457031-7.71875-7.71875v-64.8125c0-4.261719 3.457031-7.71875 7.71875-7.71875h172.839843c4.261719 0 7.714844 3.457031 7.714844 7.71875v64.8125c0 4.261719-3.453125 7.71875-7.714844 7.71875zm0 0" fill="#fd6096"/><path d="m446.070312 142.128906h-52.984374c-4.269532 0-7.726563-3.460937-7.726563-7.726562s3.457031-7.726563 7.726563-7.726563h52.984374c4.265626 0 7.726563 3.460938 7.726563 7.726563s-3.460937 7.726562-7.726563 7.726562zm0 0" fill="#fc3e81"/><path d="m405.175781 163.222656h-12.089843c-4.269532 0-7.726563-3.457031-7.726563-7.726562 0-4.265625 3.457031-7.722656 7.726563-7.722656h12.089843c4.265625 0 7.722657 3.457031 7.722657 7.722656 0 4.269531-3.457032 7.726562-7.722657 7.726562zm0 0" fill="#fc3e81"/></svg>