<svg height="512pt" viewBox="0 -33 512 512" width="512pt" xmlns="http://www.w3.org/2000/svg"><path d="m512 10.300781v425.527344c0 5.6875-4.613281 10.304687-10.300781 10.304687h-491.398438c-5.6875-.003906-10.300781-4.617187-10.300781-10.304687v-425.527344c0-5.6875 4.613281-10.300781 10.300781-10.300781h491.398438c5.6875 0 10.300781 4.613281 10.300781 10.300781zm0 0" fill="#e3f4ff"/><path d="m512 10.308594v425.515625c0 5.6875-4.613281 10.300781-10.300781 10.300781h-30.566407c5.6875 0 10.300782-4.613281 10.300782-10.300781v-425.515625c0-5.6875-4.613282-10.30468775-10.300782-10.30468775h30.566407c5.6875 0 10.300781 4.61718775 10.300781 10.30468775zm0 0" fill="#bddff4"/><path d="m512 326.246094v109.582031c0 5.6875-4.613281 10.300781-10.300781 10.300781h-491.398438c-5.6875 0-10.300781-4.613281-10.300781-10.300781v-109.582031zm0 0" fill="#618baa"/><path d="m512 326.246094v109.582031c0 5.6875-4.613281 10.300781-10.300781 10.300781h-30.566407c5.6875 0 10.300782-4.613281 10.300782-10.300781v-109.582031zm0 0" fill="#4e7693"/><path d="m512 10.308594v55.183594h-512v-55.183594c0-5.6875 4.613281-10.30468775 10.300781-10.30468775h491.398438c5.6875 0 10.300781 4.61718775 10.300781 10.30468775zm0 0" fill="#618baa"/><path d="m512 10.308594v55.183594h-30.566406v-55.183594c0-5.6875-4.613282-10.30468775-10.300782-10.30468775h30.566407c5.6875 0 10.300781 4.61718775 10.300781 10.30468775zm0 0" fill="#4e7693"/><path d="m150.292969.00390625v65.48828175h-150.292969v-55.183594c0-5.6875 4.613281-10.30468775 10.300781-10.30468775zm0 0" fill="#32dfb7"/><path d="m47.878906 40.394531c-.015625 0-.027344 0-.039062 0h-.109375c-4.265625-.019531-7.710938-3.496093-7.691407-7.761719.023438-4.253906 3.476563-7.691406 7.726563-7.691406h.039063.105468c4.269532.019532 7.710938 3.496094 7.691406 7.761719-.019531 4.257813-3.472656 7.691406-7.722656 7.691406zm0 0" fill="#21c69c"/><path d="m76.21875 40.476562h-.109375c-4.265625 0-7.726563-3.457031-7.726563-7.726562 0-4.265625 3.460938-7.726562 7.726563-7.726562h.109375c4.269531 0 7.726562 3.460937 7.726562 7.726562 0 4.269531-3.457031 7.726562-7.726562 7.726562zm0 0" fill="#21c69c"/><path d="m104.5625 40.558594c-.011719 0-.023438 0-.035156 0h-.109375c-4.269531-.019532-7.710938-3.492188-7.691407-7.761719.019532-4.253906 3.476563-7.691406 7.726563-7.691406h.035156.109375c4.269532.023437 7.710938 3.496093 7.691406 7.761719-.019531 4.257812-3.472656 7.691406-7.726562 7.691406zm0 0" fill="#21c69c"/><path d="m148.480469 260.824219c-3.613281 0-7.226563-1.378907-9.984375-4.136719l-51.496094-51.496094c-5.515625-5.515625-5.515625-14.453125 0-19.96875l51.496094-51.5c5.515625-5.511718 14.453125-5.511718 19.96875 0 5.511718 5.515625 5.511718 14.453125 0 19.96875l-41.515625 41.511719 41.515625 41.515625c5.511718 5.515625 5.511718 14.453125 0 19.96875-2.757813 2.757812-6.371094 4.136719-9.984375 4.136719zm0 0" fill="#43a3f9"/><path d="m363.519531 260.824219c-3.613281 0-7.226562-1.378907-9.984375-4.136719-5.511718-5.511719-5.511718-14.453125 0-19.964844l41.515625-41.515625-41.515625-41.515625c-5.511718-5.511718-5.511718-14.453125 0-19.964844 5.515625-5.515624 14.453125-5.515624 19.96875 0l51.496094 51.5c2.648438 2.644532 4.136719 6.238282 4.136719 9.980469 0 3.746094-1.488281 7.335938-4.136719 9.984375l-51.496094 51.5c-2.757812 2.753906-6.371094 4.132813-9.984375 4.132813zm0 0" fill="#43a3f9"/><path d="m224.867188 266.367188c-6.730469-2.941407-9.800782-10.785157-6.855469-17.515626l51.605469-117.953124c2.945312-6.726563 10.785156-9.796876 17.515624-6.851563 6.730469 2.941406 9.800782 10.785156 6.855469 17.515625l-51.605469 117.953125c-2.945312 6.726563-10.789062 9.796875-17.515624 6.851563zm0 0" fill="#32dfb7"/><g fill="#4e7693"><path d="m231.277344 367.535156h-173.074219c-4.265625 0-7.722656-3.460937-7.722656-7.726562s3.457031-7.726563 7.722656-7.726563h173.070313c4.269531 0 7.726562 3.460938 7.726562 7.726563.003906 4.265625-3.457031 7.726562-7.722656 7.726562zm0 0"/><path d="m231.277344 393.914062h-173.074219c-4.265625 0-7.722656-3.457031-7.722656-7.722656 0-4.269531 3.457031-7.726562 7.722656-7.726562h173.070313c4.269531 0 7.726562 3.457031 7.726562 7.726562.003906 4.265625-3.457031 7.722656-7.722656 7.722656zm0 0"/><path d="m231.277344 420.296875h-173.074219c-4.265625 0-7.722656-3.460937-7.722656-7.726563 0-4.269531 3.457031-7.726562 7.722656-7.726562h173.070313c4.269531 0 7.726562 3.457031 7.726562 7.726562.003906 4.265626-3.457031 7.726563-7.722656 7.726563zm0 0"/><path d="m453.796875 367.535156h-173.070313c-4.269531 0-7.726562-3.460937-7.726562-7.726562s3.457031-7.726563 7.726562-7.726563h173.070313c4.265625 0 7.722656 3.460938 7.722656 7.726563s-3.457031 7.726562-7.722656 7.726562zm0 0"/><path d="m453.796875 393.914062h-173.070313c-4.269531 0-7.726562-3.457031-7.726562-7.722656 0-4.269531 3.457031-7.726562 7.726562-7.726562h173.070313c4.265625 0 7.722656 3.457031 7.722656 7.726562 0 4.265625-3.457031 7.722656-7.722656 7.722656zm0 0"/><path d="m453.796875 420.296875h-173.070313c-4.269531 0-7.726562-3.460937-7.726562-7.726563 0-4.269531 3.457031-7.726562 7.726562-7.726562h173.070313c4.265625 0 7.722656 3.457031 7.722656 7.726562 0 4.265626-3.457031 7.726563-7.722656 7.726563zm0 0"/></g></svg>