<svg height="512pt" viewBox="-26 0 512 512" width="512pt" xmlns="http://www.w3.org/2000/svg"><path d="m445.9375 511.996094h-432.226562c-7.570313 0-13.70703175-6.136719-13.70703175-13.707032v-477.730468c0-11.355469 9.20703175-20.558594 20.56249975-20.558594h418.515625c11.355469 0 20.5625 9.203125 20.5625 20.558594v477.730468c0 7.570313-6.136719 13.707032-13.707031 13.707032zm0 0" fill="#e3f4ff"/><path d="m459.648438 20.566406v477.726563c0 7.566406-6.140626 13.707031-13.707032 13.707031h-42.957031c7.578125 0 13.707031-6.140625 13.707031-13.707031v-477.726563c0-11.363281-9.199218-20.56249975-20.558594-20.56249975h42.957032c11.347656 0 20.558594 9.19921875 20.558594 20.56249975zm0 0" fill="#bddff4"/><path d="m459.648438 20.566406v68.726563h-459.648438v-68.726563c0-11.363281 9.210938-20.56249975 20.558594-20.56249975h418.53125c11.347656 0 20.558594 9.19921875 20.558594 20.56249975zm0 0" fill="#a7c7d3"/><path d="m459.648438 20.566406v68.726563h-42.957032v-68.726563c0-11.363281-9.199218-20.56249975-20.558594-20.56249975h42.957032c11.347656 0 20.558594 9.19921875 20.558594 20.56249975zm0 0" fill="#89b4c9"/><path d="m385.976562 487.773438h-314.019531c-4.265625 0-7.726562-3.457032-7.726562-7.722657 0-4.269531 3.460937-7.726562 7.726562-7.726562h314.019531c4.269532 0 7.726563 3.457031 7.726563 7.726562 0 4.265625-3.457031 7.722657-7.726563 7.722657zm0 0" fill="#93c0d1"/><path d="m385.976562 127.742188h-314.019531c-4.265625 0-7.726562-3.457032-7.726562-7.722657 0-4.269531 3.460937-7.726562 7.726562-7.726562h314.019531c4.269532 0 7.726563 3.457031 7.726563 7.726562 0 4.265625-3.457031 7.722657-7.726563 7.722657zm0 0" fill="#93c0d1"/><g fill="#618baa"><path d="m71.730469 43.523438 3.550781-3.550782c3.015625-3.015625 3.015625-7.90625 0-10.925781-3.019531-3.015625-7.910156-3.015625-10.929688 0l-3.550781 3.550781-3.550781-3.550781c-3.015625-3.015625-7.90625-3.015625-10.925781 0s-3.019531 7.910156 0 10.925781l3.550781 3.550782-3.550781 3.550781c-3.019531 3.019531-3.019531 7.910156 0 10.929687 1.507812 1.507813 3.484375 2.261719 5.460937 2.261719 1.980469 0 3.957032-.753906 5.464844-2.261719l3.550781-3.550781 3.550781 3.550781c1.507813 1.507813 3.488282 2.261719 5.464844 2.261719 1.976563 0 3.953125-.753906 5.460938-2.261719 3.019531-3.019531 3.019531-7.910156 0-10.929687zm0 0"/><path d="m380.441406 60.78125c-1.90625 0-3.8125-.703125-5.308594-2.113281l-9.796874-9.273438c-1.542969-1.457031-2.414063-3.488281-2.414063-5.613281 0-2.121094.871094-4.152344 2.414063-5.609375l9.796874-9.273437c3.101563-2.929688 7.992188-2.796876 10.921876.300781 2.933593 3.101562 2.800781 7.992187-.300782 10.925781l-3.867187 3.65625 3.867187 3.660156c3.101563 2.933594 3.234375 7.824219.300782 10.921875-1.519532 1.609375-3.5625 2.417969-5.613282 2.417969zm0 0"/><path d="m407.859375 60.78125c-1.90625 0-3.816406-.703125-5.3125-2.117188l-9.796875-9.269531c-1.539062-1.460937-2.414062-3.488281-2.414062-5.613281 0-2.121094.875-4.152344 2.414062-5.609375l9.796875-9.273437c3.097656-2.933594 7.988281-2.800782 10.925781.300781 2.933594 3.097656 2.796875 7.988281-.300781 10.921875l-3.867187 3.660156 3.867187 3.660156c3.097656 2.933594 3.230469 7.824219.300781 10.921875-1.519531 1.609375-3.566406 2.417969-5.613281 2.417969zm0 0"/></g><path d="m124.746094 160.132812v58.785157c0 3.96875 3.214844 7.183593 7.183594 7.183593h21.546874c3.96875 0 7.183594-3.214843 7.183594-7.183593v-22.871094c0-3.96875 3.21875-7.183594 7.183594-7.183594h36.839844c3.96875 0 7.183594 3.214844 7.183594 7.183594v144.203125c0 3.96875-3.214844 7.183594-7.183594 7.183594h-36.839844c-3.964844 0-7.183594 3.214844-7.183594 7.183594v21.546874c0 3.96875 3.21875 7.183594 7.183594 7.183594h123.960938c3.96875 0 7.183593-3.214844 7.183593-7.183594v-21.546874c0-3.96875-3.214843-7.183594-7.183593-7.183594h-36.839844c-3.96875 0-7.183594-3.214844-7.183594-7.183594v-144.203125c0-3.96875 3.214844-7.183594 7.183594-7.183594h36.839844c3.96875 0 7.183593 3.214844 7.183593 7.183594v22.871094c0 3.96875 3.214844 7.183593 7.183594 7.183593h21.546875c3.96875 0 7.183594-3.214843 7.183594-7.183593v-58.785157c0-3.96875-3.214844-7.183593-7.183594-7.183593h-195.789062c-3.96875 0-7.183594 3.214843-7.183594 7.183593zm0 0" fill="#fc3e81"/><path d="m327.71875 443.679688h-195.789062c-3.96875 0-7.183594-3.214844-7.183594-7.183594v-21.546875c0-3.96875 3.214844-7.183594 7.183594-7.183594h195.789062c3.96875 0 7.183594 3.214844 7.183594 7.183594v21.546875c0 3.96875-3.214844 7.183594-7.183594 7.183594zm0 0" fill="#1685fb"/></svg>