<svg height="511pt" viewBox="1 -16 511.999 511" width="511pt" xmlns="http://www.w3.org/2000/svg"><path d="m15.515625 88.160156v368.742188c0 8.855468 7.179687 16.03125 16.03125 16.03125h448.902344c8.855469 0 16.035156-7.175782 16.035156-16.03125v-368.742188zm0 0" fill="#dad8db"/><path d="m15.515625 88.160156v336.679688c0 8.851562 7.179687 16.03125 16.03125 16.03125h448.902344c8.855469 0 16.035156-7.179688 16.035156-16.03125v-336.679688zm0 0" fill="#eceaec"/><path d="m151.789062 88.160156v120.242188c0 13.28125 10.765626 24.046875 24.046876 24.050781h56.933593l-32.378906 155.414063c-2.363281 11.351562 3.707031 22.773437 14.4375 27.164062 2.960937 1.210938 6.050781 1.792969 9.097656 1.792969 7.984375 0 15.699219-3.988281 20.238281-11.046875l143.855469-223.777344c2.695313-3.882812 4.273438-8.597656 4.273438-13.679688 0-13.28125-10.746094-24.046874-24.027344-24.046874h-.042969l-67.953125.003906 11.691407-56.117188zm0 0" fill="#fff"/><path d="m496.484375 104.195312h-480.96875c-4.425781 0-8.015625-3.589843-8.015625-8.019531v-48.09375c0-4.429687 3.589844-8.015625 8.015625-8.015625h480.96875c4.425781 0 8.015625 3.585938 8.015625 8.015625v48.09375c0 4.429688-3.589844 8.019531-8.015625 8.019531zm0 0" fill="#ff8086"/><path d="m55.597656 72.128906c-8.855468 0-16.03125-7.179687-16.03125-16.03125v-32.066406c0-8.855469 7.175782-16.03125 16.03125-16.03125 8.851563 0 16.03125 7.175781 16.03125 16.03125v32.066406c0 8.851563-7.179687 16.03125-16.03125 16.03125zm0 0" fill="#9b959d"/><path d="m63.613281 80.144531c-13.28125 0-24.046875-10.765625-24.046875-24.046875v-16.03125h-24.050781c-4.425781 0-8.015625 3.585938-8.015625 8.015625v48.09375c0 4.429688 3.589844 8.019531 8.015625 8.019531h480.96875c4.425781 0 8.015625-3.589843 8.015625-8.019531v-16.03125zm0 0" fill="#e5646e"/><path d="m456.402344 72.128906c-8.851563 0-16.03125-7.179687-16.03125-16.03125v-32.066406c0-8.855469 7.179687-16.03125 16.03125-16.03125 8.855468 0 16.03125 7.175781 16.03125 16.03125v32.066406c0 8.851563-7.175782 16.03125-16.03125 16.03125zm0 0" fill="#9b959d"/><path d="m368.226562 168.324219-97.53125.003906 33.402344-160.328125h-128.257812v200.402344l86.503906.003906-38.410156 184.367188zm0 0" fill="#ffe07d"/><path d="m199.886719 176.339844v-168.339844h-24.046875v200.402344l86.503906.003906-38.40625 184.367188 71.367188-178.417969c4.210937-10.53125-3.542969-21.984375-14.886719-21.984375h-64.496094c-8.855469 0-16.035156-7.179688-16.035156-16.03125zm0 0" fill="#ffd064"/><path d="m55.597656 72.128906c-8.855468 0-16.03125-7.179687-16.03125-16.03125v-16.03125h32.0625v16.03125c0 8.851563-7.179687 16.03125-16.03125 16.03125zm0 0" fill="#857e87"/><path d="m456.402344 72.128906c-8.851563 0-16.03125-7.179687-16.03125-16.03125v-16.03125h32.066406v16.03125c-.003906 8.851563-7.179688 16.03125-16.035156 16.03125zm0 0" fill="#857e87"/><path d="m496.484375 32.566406h-16.546875v-8.535156c0-12.976562-10.558594-23.53125-23.535156-23.53125-12.972656 0-23.53125 10.558594-23.53125 23.53125v8.535156h-126.230469l4.796875-23.035156c.460938-2.210938-.097656-4.511719-1.523438-6.261719-1.421874-1.753906-3.558593-2.769531-5.816406-2.769531h-128.257812c-4.144532 0-7.5 3.359375-7.5 7.5v24.5625h-89.210938v-8.53125c0-12.976562-10.558594-23.53125-23.53125-23.53125-12.976562 0-23.535156 10.554688-23.535156 23.53125v8.53125h-16.546875c-8.554687.003906-15.515625 6.960938-15.515625 15.519531v48.09375c0 5.835938 3.242188 10.925781 8.015625 13.574219v347.152344c0 12.976562 10.558594 23.53125 23.53125 23.53125h448.902344c12.976562 0 23.535156-10.554688 23.535156-23.53125v-347.152344c4.773437-2.648438 8.015625-7.738281 8.015625-13.574219v-48.09375c0-8.558593-6.960938-15.515625-15.515625-15.515625zm-48.613281-8.535156c0-4.703125 3.828125-8.53125 8.53125-8.53125s8.53125 3.828125 8.53125 8.53125v32.0625c0 4.707031-3.828125 8.535156-8.53125 8.535156s-8.53125-3.828125-8.53125-8.535156zm-264.53125-8.53125h111.53125l-31.519532 151.296875c-.457031 2.210937.101563 4.507813 1.523438 6.261719 1.425781 1.75 3.5625 2.769531 5.820312 2.769531l83.792969-.003906-114.945312 178.800781 30.144531-144.6875c.460938-2.210938-.097656-4.511719-1.523438-6.261719-1.425781-1.75-3.5625-2.769531-5.820312-2.769531l-79.003906-.003906zm-136.277344 8.53125c0-4.703125 3.828125-8.53125 8.535156-8.53125 4.703125 0 8.53125 3.828125 8.53125 8.53125v32.0625c0 4.707031-3.828125 8.535156-8.53125 8.535156-4.707031 0-8.535156-3.828125-8.535156-8.535156zm-32.0625 24.050781c0-.285156.230469-.515625.515625-.515625h16.546875v8.53125c0 12.976563 10.558594 23.53125 23.535156 23.53125 12.972656 0 23.53125-10.558594 23.53125-23.53125v-8.53125h89.210938v49.128906h-152.824219c-.285156 0-.515625-.234374-.515625-.519531zm465.453125 417.351563h-448.90625c-4.703125 0-8.53125-3.824219-8.53125-8.53125v-10.140625c2.648437 1.035156 5.523437 1.609375 8.53125 1.609375h16.035156c4.144531 0 7.5-3.359375 7.5-7.5s-3.355469-7.5-7.5-7.5h-16.035156c-4.703125 0-8.53125-3.828125-8.53125-8.53125v-313.144532h145.324219v96.707032c0 4.144531 3.355468 7.5 7.5 7.5l77.28125.003906-36.527344 175.339844c-.738281 3.539062 1.15625 7.101562 4.503906 8.46875.921875.378906 1.886719.5625 2.835938.5625 2.488281 0 4.894531-1.246094 6.3125-3.445313l144.289062-224.453125c1.484375-2.308594 1.589844-5.242187.273438-7.652344-1.3125-2.40625-3.839844-3.902343-6.582032-3.902343h-88.304687l10.234375-49.132813h158.234375c4.140625 0 7.5-3.355468 7.5-7.5 0-4.140625-3.359375-7.5-7.5-7.5h-155.109375l10.234375-49.128906h129.355469v8.53125c0 12.976562 10.558594 23.535156 23.53125 23.535156 12.976562 0 23.53125-10.558594 23.53125-23.535156v-8.53125h16.550781c.285156 0 .515625.230469.515625.515625v48.097656c0 .285157-.230469.515625-.515625.515625h-16.03125c-4.140625 0-7.5 3.359375-7.5 7.5 0 4.144532 3.359375 7.5 7.5 7.5h8.53125v313.148438c0 4.703125-3.828125 8.53125-8.535156 8.53125h-400.804688c-4.140625 0-7.5 3.355468-7.5 7.5 0 4.140625 3.359375 7.5 7.5 7.5h400.808594c3.007813 0 5.882813-.574219 8.53125-1.609375v10.140625c0 4.707031-3.828125 8.53125-8.53125 8.53125zm0 0"/></svg>