<svg height="512pt" viewBox="0 -76 512 512" width="512pt" xmlns="http://www.w3.org/2000/svg"><path d="m480.578125 325.367188h-30.390625c-4.265625 0-7.722656-3.460938-7.722656-7.726563s3.457031-7.726563 7.722656-7.726563h30.390625c4.269531 0 7.726563 3.460938 7.726563 7.726563s-3.457032 7.726563-7.726563 7.726563zm-92.199219 0h-61.296875c-4.269531 0-7.726562-3.460938-7.726562-7.726563s3.460937-7.726563 7.726562-7.726563h61.296875c4.265625 0 7.726563 3.460938 7.726563 7.726563s-3.460938 7.726563-7.726563 7.726563zm-330.6875 0h-26.269531c-4.269531 0-7.726563-3.460938-7.726563-7.726563s3.457032-7.726563 7.726563-7.726563h26.269531c4.265625 0 7.722656 3.460938 7.722656 7.726563s-3.457031 7.726563-7.722656 7.726563zm-41.125-14.578126c-4.269531 0-7.726562-3.460937-7.726562-7.726562v-213.761719c0-4.269531 3.457031-7.726562 7.726562-7.726562 4.265625 0 7.722656 3.457031 7.722656 7.726562v213.761719c.003907 4.265625-3.457031 7.726562-7.722656 7.726562zm478.867188-.21875c-4.265625 0-7.722656-3.457031-7.722656-7.722656v-212.910156c0-4.269531 3.457031-7.726562 7.722656-7.726562 4.269531 0 7.726562 3.457031 7.726562 7.726562v212.910156c0 4.265625-3.457031 7.722656-7.726562 7.722656zm-14.503906-228.445312h-87.914063c-4.269531 0-7.726563-3.457031-7.726563-7.726562 0-4.265626 3.457032-7.722657 7.726563-7.722657h87.914063c4.265624 0 7.726562 3.457031 7.726562 7.722657 0 4.269531-3.460938 7.726562-7.726562 7.726562zm-184.238282 0h-69.019531c-4.269531 0-7.726563-3.457031-7.726563-7.726562 0-4.265626 3.457032-7.722657 7.726563-7.722657h69.019531c4.269532 0 7.726563 3.457031 7.726563 7.722657 0 4.269531-3.457031 7.726562-7.726563 7.726562zm-149.492187 0h-64.113281c-4.269532 0-7.726563-3.457031-7.726563-7.726562 0-4.265626 3.457031-7.722657 7.726563-7.722657h64.113281c4.269531 0 7.726562 3.457031 7.726562 7.722657 0 4.269531-3.457031 7.726562-7.726562 7.726562zm-88.996094 0h-26.78125c-4.269531 0-7.726563-3.457031-7.726563-7.726562 0-4.265626 3.457032-7.722657 7.726563-7.722657h26.785156c4.265625 0 7.726563 3.457031 7.726563 7.722657 0 4.269531-3.460938 7.726562-7.730469 7.726562zm0 0" fill="#93c0d1"/><path d="m505.4375 90.964844h-20.007812c-3.625 0-6.5625-2.9375-6.5625-6.5625v-20.007813c0-3.625 2.9375-6.5625 6.5625-6.5625h20.007812c3.625 0 6.5625 2.9375 6.5625 6.5625v20.007813c0 3.625-2.9375 6.5625-6.5625 6.5625zm0 0" fill="#27e6fc"/><path d="m505.4375 334.207031h-20.007812c-3.625 0-6.5625-2.9375-6.5625-6.5625v-20.007812c0-3.625 2.9375-6.5625 6.5625-6.5625h20.007812c3.625 0 6.5625 2.9375 6.5625 6.5625v20.007812c0 3.621094-2.9375 6.5625-6.5625 6.5625zm0 0" fill="#27e6fc"/><path d="m26.570312 90.964844h-20.007812c-3.625 0-6.5625-2.9375-6.5625-6.5625v-20.007813c0-3.625 2.9375-6.5625 6.5625-6.5625h20.007812c3.625 0 6.5625 2.9375 6.5625 6.5625v20.007813c0 3.625-2.941406 6.5625-6.5625 6.5625zm0 0" fill="#27e6fc"/><path d="m26.570312 334.207031h-20.007812c-3.625 0-6.5625-2.9375-6.5625-6.5625v-20.007812c0-3.625 2.9375-6.5625 6.5625-6.5625h20.007812c3.625 0 6.5625 2.9375 6.5625 6.5625v20.007812c0 3.621094-2.941406 6.5625-6.5625 6.5625zm0 0" fill="#27e6fc"/><path d="m55.492188 64.566406v286.132813c0 5.65625 4.585937 10.242187 10.242187 10.242187h286.132813c9.125 0 13.695312-11.03125 7.246093-17.484375l-286.132812-286.132812c-6.453125-6.453125-17.488281-1.882813-17.488281 7.242187zm56.335937 111.277344 128.753906 128.761719h-128.753906zm0 0" fill="#fdb659"/><path d="m351.867188 360.9375h-3.277344c-.449219-1.546875-1.300782-3.042969-2.609375-4.351562l-286.125-286.136719c-1.3125-1.308594-2.808594-2.171875-4.363281-2.621094v-3.265625c0-9.117188 11.03125-13.695312 17.484374-7.242188l286.136719 286.132813c6.449219 6.453125 1.882813 17.484375-7.246093 17.484375zm0 0" fill="#fd9e28"/><g fill="#fd8724"><path d="m102.140625 341.066406v19.871094h-15.449219v-19.871094c0-4.265625 3.460938-7.726562 7.722656-7.726562 4.265626 0 7.726563 3.460937 7.726563 7.726562zm0 0"/><path d="m145.65625 341.066406v19.871094h-15.453125v-19.871094c0-4.265625 3.453125-7.726562 7.726563-7.726562 4.265624 0 7.726562 3.460937 7.726562 7.726562zm0 0"/><path d="m189.160156 341.066406v19.871094h-15.449218v-19.871094c0-4.265625 3.460937-7.726562 7.722656-7.726562 4.277344 0 7.726562 3.460937 7.726562 7.726562zm0 0"/><path d="m232.675781 341.066406v19.871094h-15.453125v-19.871094c0-4.265625 3.460938-7.726562 7.726563-7.726562s7.726562 3.460937 7.726562 7.726562zm0 0"/><path d="m276.191406 341.066406v19.871094h-15.453125v-19.871094c0-4.265625 3.460938-7.726562 7.726563-7.726562s7.726562 3.460937 7.726562 7.726562zm0 0"/><path d="m319.707031 341.066406v19.871094h-15.453125v-19.871094c0-4.265625 3.449219-7.726562 7.726563-7.726562 4.265625 0 7.726562 3.460937 7.726562 7.726562zm0 0"/></g><path d="m128.042969 48.8125 33.3125-33.3125c4.195312-4.199219 10.996093-4.199219 15.1875-.007812l266.101562 266.101562c1.019531 1.023438 1.734375 2.304688 2.066407 3.710938l11.582031 49.117187c1.328125 5.605469-3.71875 10.652344-9.328125 9.328125l-49.117188-11.582031c-1.402344-.335938-2.683594-1.050781-3.703125-2.070313l-266.101562-266.101562c-4.191407-4.191406-4.191407-10.992188 0-15.183594zm0 0" fill="#43a3f9"/><path d="m394.140625 330.097656-241.882813-241.882812 16.167969-16.167969 241.882813 241.886719zm0 0" fill="#1685fb"/><path d="m426.476562 297.761719-241.882812-241.882813 16.164062-16.167968 241.886719 241.886718zm0 0" fill="#006be0"/><path d="m394.144531 330.097656 48.5-48.503906c1.019531 1.019531 1.734375 2.304688 2.066407 3.707031l11.582031 49.117188c1.328125 5.605469-3.71875 10.652343-9.328125 9.332031l-49.117188-11.585938c-1.402344-.332031-2.683594-1.046874-3.703125-2.066406zm0 0" fill="#e3f4ff"/><path d="m176.542969 15.492188 24.214843 24.214843-48.503906 48.5-24.210937-24.210937c-4.195313-4.195313-4.195313-10.996094 0-15.1875l33.3125-33.316406c4.195312-4.191407 10.996093-4.191407 15.1875 0zm0 0" fill="#4e7693"/><path d="m459.335938 146.207031-42.976563 42.976563c-4.023437 4.023437-10.546875 4.023437-14.570313 0l-128.621093-128.621094c-4.023438-4.019531-4.023438-10.542969 0-14.566406l42.976562-42.980469c4.023438-4.019531 10.546875-4.019531 14.570313 0l128.621094 128.621094c4.023437 4.023437 4.023437 10.546875 0 14.570312zm0 0" fill="#e3f4ff"/><path d="m330.714844 3.015625 128.621094 128.621094c4.019531 4.023437 4.019531 10.546875 0 14.570312l-16.542969 16.542969c4.019531-4.023438 4.019531-10.546875 0-14.570312l-128.621094-128.621094c-4.019531-4.019532-10.546875-4.019532-14.570313 0l16.542969-16.542969c4.023438-4.019531 10.550781-4.019531 14.570313 0zm0 0" fill="#bddff4"/><path d="m356.070312 28.375 103.265626 103.261719c4.019531 4.023437 4.019531 10.550781 0 14.570312l-42.976563 42.976563c-4.023437 4.023437-10.550781 4.023437-14.570313 0l-103.265624-103.261719zm0 0" fill="#fc3e81"/><path d="m356.070312 28.375 103.265626 103.261719c4.019531 4.023437 4.019531 10.550781 0 14.570312l-16.542969 16.542969c4.019531-4.019531 4.019531-10.546875 0-14.570312l-103.265625-103.261719zm0 0" fill="#f01054"/></svg>