<svg height="512pt" viewBox="0 0 512 512" width="512pt" xmlns="http://www.w3.org/2000/svg"><path d="m95.160156 440.371094c0-12.976563-10.554687-23.53125-23.53125-23.53125-12.976562 0-23.53125 10.554687-23.53125 23.53125 0 12.976562 10.554688 23.53125 23.53125 23.53125 12.976563 0 23.53125-10.554688 23.53125-23.53125zm-32.0625 0c0-4.707032 3.828125-8.53125 8.53125-8.53125s8.53125 3.828125 8.53125 8.53125-3.828125 8.53125-8.53125 8.53125-8.53125-3.828125-8.53125-8.53125zm0 0"/><path d="m504.5 368.742188h-259.941406l183.804687-183.808594c2.929688-2.929688 2.929688-7.675782 0-10.605469l-90.691406-90.691406c-1.40625-1.40625-3.3125-2.199219-5.304687-2.199219-1.988282 0-3.894532.792969-5.300782 2.199219l-183.808594 183.804687v-259.941406c0-4.140625-3.359374-7.5-7.5-7.5h-128.257812c-4.140625 0-7.5 3.359375-7.5 7.5v432.871094c0 39.496094 32.132812 71.628906 71.628906 71.628906h432.871094c4.140625 0 7.5-3.359375 7.5-7.5v-128.257812c0-4.140626-3.359375-7.5-7.5-7.5zm-172.132812-269.195313 80.085937 80.085937-34.738281 34.738282-80.085938-80.085938zm-45.34375 45.34375 80.085937 80.085937-34.742187 34.742188-80.085938-80.085938zm-45.347657 45.347656 80.085938 80.085938-34.738281 34.738281-80.085938-80.085938zm-98.417969 98.417969 7.726563-7.726562 80.085937 80.085937-34.9375 34.9375-52.875-52.875zm-128.257812-209.527344h72.660156c4.140625 0 7.5-3.359375 7.5-7.5s-3.359375-7.5-7.5-7.5h-72.660156v-49.128906h113.257812v49.128906h-8.53125c-4.144531 0-7.5 3.359375-7.5 7.5s3.355469 7.5 7.5 7.5h8.53125v49.128906h-113.257812zm0 64.128906h113.257812v49.128907h-113.257812zm0 64.128907h113.257812v49.128906h-113.257812zm0 64.128906h113.257812v49.128906h-113.257812zm62.492188 225.179687c-.03125.003907-3.523438.304688-5.863282.304688-31.226562 0-56.628906-25.402344-56.628906-56.628906v-104.726563h113.257812v104.726563c0 29.246094-22.285156 53.382812-50.765624 56.324218zm98.863281.304688h-60.878907c2.367188-1.839844 4.644532-3.824219 6.800782-5.980469l54.078125-54.074219zm-33.6875-47.582031c.375-2.964844.589843-5.980469.589843-9.046875v-76.078125l42.269532 42.265625zm97.816406 47.582031h-49.128906v-75.054688l38.203125-38.203124h10.925781zm-78.894531-226.675781 34.742187-34.742188 80.085938 80.085938-34.742188 34.738281zm143.023437 226.675781h-49.128906v-113.257812h49.128906zm64.128907 0h-49.128907v-113.257812h49.128907zm128.257812 0h-49.128906v-72.660156c0-4.140625-3.359375-7.5-7.5-7.5s-7.5 3.359375-7.5 7.5v72.660156h-49.128906v-113.257812h49.128906v8.53125c0 4.144531 3.359375 7.5 7.5 7.5s7.5-3.355469 7.5-7.5v-8.53125h49.128906zm0 0"/></svg>