<svg height="512pt" viewBox="0 0 512 512" width="512pt" xmlns="http://www.w3.org/2000/svg"><path d="m7.5 440.371094c0-35.417969 28.710938-64.128906 64.128906-64.128906h432.871094v128.257812h-432.871094c-35.417968 0-64.128906-28.710938-64.128906-64.128906zm0 0" fill="#eceaec"/><path d="m183.855469 376.242188h64.128906v128.257812h-64.128906zm0 0" fill="#739ad6"/><path d="m312.113281 376.242188h64.128907v128.257812h-64.128907zm0 0" fill="#b4b4eb"/><path d="m247.984375 376.242188h64.128906v128.257812h-64.128906zm0 0" fill="#8bb3ea"/><path d="m376.242188 376.242188h64.128906v128.257812h-64.128906zm0 0" fill="#d6bdef"/><path d="m440.371094 376.242188h64.128906v128.257812h-64.128906zm0 0" fill="#ead1ff"/><path d="m26.28125 485.71875c-25.042969-25.046875-25.042969-65.648438 0-90.695312l306.085938-306.085938 90.695312 90.695312-306.085938 306.085938c-25.046874 25.042969-65.648437 25.042969-90.695312 0zm0 0" fill="#eceaec"/><path d="m150.984375 270.320312 90.691406 90.691407-45.34375 45.347656-90.691406-90.691406zm0 0" fill="#69a5a0"/><path d="m241.675781 179.628906 90.691407 90.691406-45.34375 45.34375-90.691407-90.691406zm0 0" fill="#96d2aa"/><path d="m196.332031 224.976562 90.691407 90.6875-45.347657 45.347657-90.691406-90.691407zm0 0" fill="#78c2a4"/><path d="m287.023438 134.28125 90.691406 90.691406-45.347656 45.347656-90.691407-90.691406zm0 0" fill="#a4ccff"/><path d="m332.367188 88.9375 90.691406 90.691406-45.34375 45.34375-90.691406-90.691406zm0 0" fill="#c3ddff"/><path d="m71.628906 504.5c-35.417968 0-64.128906-28.710938-64.128906-64.128906v-432.871094h128.257812v432.871094c0 35.417968-28.710937 64.128906-64.128906 64.128906zm0 0" fill="#eceaec"/><path d="m31.546875 440.371094v-432.871094h-24.046875v432.871094c0 35.417968 28.710938 64.128906 64.128906 64.128906 4.113282 0 8.125-.425781 12.023438-1.164062-29.664063-5.636719-52.105469-31.660157-52.105469-62.964844zm0 0" fill="#dad8db"/><path d="m87.660156 440.371094c0 8.855468-7.175781 16.03125-16.03125 16.03125-8.855468 0-16.03125-7.175782-16.03125-16.03125 0-8.855469 7.175782-16.03125 16.03125-16.03125 8.855469 0 16.03125 7.175781 16.03125 16.03125zm0 0" fill="#b6b1b7"/><path d="m7.5 264.015625h128.257812v64.128906h-128.257812zm0 0" fill="#bd4150"/><path d="m7.5 135.757812h128.257812v64.128907h-128.257812zm0 0" fill="#ffa95f"/><path d="m7.5 199.886719h128.257812v64.128906h-128.257812zm0 0" fill="#e5646e"/><path d="m7.5 71.628906h128.257812v64.128906h-128.257812zm0 0" fill="#ffc269"/><path d="m7.5 7.5h128.257812v64.128906h-128.257812zm0 0" fill="#ffe07d"/><path d="m95.160156 440.371094c0-12.976563-10.554687-23.53125-23.53125-23.53125-12.976562 0-23.53125 10.554687-23.53125 23.53125 0 12.976562 10.554688 23.53125 23.53125 23.53125 12.976563 0 23.53125-10.554688 23.53125-23.53125zm-32.0625 0c0-4.707032 3.828125-8.53125 8.53125-8.53125s8.53125 3.828125 8.53125 8.53125-3.828125 8.53125-8.53125 8.53125-8.53125-3.828125-8.53125-8.53125zm0 0"/><path d="m504.5 368.742188h-259.941406l183.804687-183.808594c2.929688-2.929688 2.929688-7.675782 0-10.605469l-90.691406-90.691406c-1.40625-1.40625-3.3125-2.199219-5.304687-2.199219-1.988282 0-3.894532.792969-5.300782 2.199219l-183.808594 183.804687v-259.941406c0-4.140625-3.359374-7.5-7.5-7.5h-128.257812c-4.140625 0-7.5 3.359375-7.5 7.5v432.871094c0 39.496094 32.132812 71.628906 71.628906 71.628906h432.871094c4.140625 0 7.5-3.359375 7.5-7.5v-128.257812c0-4.140626-3.359375-7.5-7.5-7.5zm-172.132812-269.195313 80.085937 80.085937-34.738281 34.738282-80.085938-80.085938zm-45.34375 45.34375 80.085937 80.085937-34.742187 34.742188-80.085938-80.085938zm-45.347657 45.347656 80.085938 80.085938-34.738281 34.738281-80.085938-80.085938zm-98.417969 98.417969 7.726563-7.726562 80.085937 80.085937-34.9375 34.9375-52.875-52.875zm-128.257812-209.527344h72.660156c4.140625 0 7.5-3.359375 7.5-7.5s-3.359375-7.5-7.5-7.5h-72.660156v-49.128906h113.257812v49.128906h-8.53125c-4.144531 0-7.5 3.359375-7.5 7.5s3.355469 7.5 7.5 7.5h8.53125v49.128906h-113.257812zm0 64.128906h113.257812v49.128907h-113.257812zm0 64.128907h113.257812v49.128906h-113.257812zm0 64.128906h113.257812v49.128906h-113.257812zm62.492188 225.179687c-.03125.003907-3.523438.304688-5.863282.304688-31.226562 0-56.628906-25.402344-56.628906-56.628906v-104.726563h113.257812v104.726563c0 29.246094-22.285156 53.382812-50.765624 56.324218zm98.863281.304688h-60.878907c2.367188-1.839844 4.644532-3.824219 6.800782-5.980469l54.078125-54.074219zm-33.6875-47.582031c.375-2.964844.589843-5.980469.589843-9.046875v-76.078125l42.269532 42.265625zm97.816406 47.582031h-49.128906v-75.054688l38.203125-38.203124h10.925781zm-78.894531-226.675781 34.742187-34.742188 80.085938 80.085938-34.742188 34.738281zm143.023437 226.675781h-49.128906v-113.257812h49.128906zm64.128907 0h-49.128907v-113.257812h49.128907zm128.257812 0h-49.128906v-72.660156c0-4.140625-3.359375-7.5-7.5-7.5s-7.5 3.359375-7.5 7.5v72.660156h-49.128906v-113.257812h49.128906v8.53125c0 4.144531 3.359375 7.5 7.5 7.5s7.5-3.355469 7.5-7.5v-8.53125h49.128906zm0 0"/></svg>