<svg height="511pt" viewBox="-32 1 511 511.999" width="511pt" xmlns="http://www.w3.org/2000/svg"><path d="m248.046875 472.4375c0-4.144531-3.359375-7.5-7.5-7.5h-.082031c-4.140625 0-7.457032 3.355469-7.457032 7.5 0 4.140625 3.398438 7.5 7.539063 7.5s7.5-3.359375 7.5-7.5zm0 0"/><path d="m432.851562 0h-384.773437c-8.554687 0-15.515625 6.960938-15.515625 15.515625v32.582031h-8.53125c-12.976562 0-23.53125 10.554688-23.53125 23.53125v49.285156c0 16.871094 10.714844 31.902344 26.667969 37.402344l194.644531 67.121094c6.671875 2.300781 11.15625 8.585938 11.15625 15.644531v15.433594h-32.582031c-4.140625 0-7.5 3.359375-7.5 7.5 0 4.144531 3.359375 7.5 7.5 7.5h.515625v8.53125c0 4.140625 3.359375 7.5 7.5 7.5s7.5-3.359375 7.5-7.5v-8.53125h49.128906v200.921875c0 13.542969-11.019531 24.5625-24.5625 24.5625-13.546875 0-24.566406-11.019531-24.566406-24.5625v-160.324219c0-4.144531-3.355469-7.5-7.5-7.5-4.140625 0-7.5 3.355469-7.5 7.5v160.320313c0 21.816406 17.75 39.566406 39.566406 39.566406 21.8125 0 39.5625-17.75 39.5625-39.566406v-200.917969h.515625c4.144531 0 7.5-3.359375 7.5-7.5s-3.355469-7.5-7.5-7.5h-32.582031v-15.433594c0-13.453125-8.542969-25.441406-21.261719-29.824219l-194.648437-67.121093c-9.902344-3.414063-16.554688-12.746094-16.554688-23.222657v-49.285156c0-4.703125 3.828125-8.53125 8.53125-8.53125h8.53125v32.582032c0 8.554687 6.960938 15.515624 15.515625 15.515624h184.371094c4.144531 0 7.5-3.359374 7.5-7.5 0-4.144531-3.355469-7.5-7.5-7.5h-184.371094c-.285156 0-.515625-.230468-.515625-.515624v-80.164063c0-.285156.230469-.515625.515625-.515625h105.441406c3.511719 18.242188 19.597657 32.0625 38.851563 32.0625h56.117187c13.542969 0 24.5625 11.023438 24.5625 24.566406v24.5625h-8.535156c-4.140625 0-7.5 3.359375-7.5 7.5 0 4.144532 3.359375 7.5 7.5 7.5h8.535156v.515625c0 12.976563 10.558594 23.53125 23.53125 23.53125 12.976563 0 23.53125-10.554687 23.53125-23.53125v-.515625h17.066407v56.628906c0 12.976563 10.554687 23.53125 23.53125 23.53125 12.972656 0 23.53125-10.554687 23.53125-23.53125v-48.136718c0-4.683594 3.828124-8.492188 8.53125-8.492188h40.078124c8.558594 0 15.515626-6.960937 15.515626-15.515625v-80.160156c.003906-8.554687-6.957032-15.515625-15.515626-15.515625zm-112.738281 96.191406v-8.53125c0-4.703125 3.828125-8.53125 8.535157-8.53125 4.703124 0 8.53125 3.828125 8.53125 8.53125v8.53125zm113.257813-.515625c0 .285157-.230469.515625-.515625.515625h-40.082031c-12.976563 0-23.53125 10.539063-23.53125 23.492188v48.140625c0 4.703125-3.828126 8.53125-8.53125 8.53125-4.703126 0-8.53125-3.828125-8.53125-8.53125v-80.164063c0-12.976562-10.558594-23.53125-23.53125-23.53125-12.976563 0-23.535157 10.558594-23.535157 23.53125v24.050782c0 4.703124-3.828125 8.53125-8.53125 8.53125s-8.53125-3.828126-8.53125-8.53125v-40.082032c0-21.816406-17.75-39.5625-39.5625-39.5625h-56.117187c-10.929688 0-20.21875-7.175781-23.394532-17.066406h263.878907c.285156 0 .515625.230469.515625.515625zm0 0"/></svg>