<svg height="511pt" viewBox="0 -11 511.998 511" width="511pt" xmlns="http://www.w3.org/2000/svg"><path d="m296.082031 152.289062c0 79.6875-64.601562 144.289063-144.292969 144.289063-79.6875 0-144.289062-64.601563-144.289062-144.289063s64.601562-144.289062 144.289062-144.289062c79.691407 0 144.292969 64.601562 144.292969 144.289062zm0 0" fill="#e5646e"/><path d="m167.820312 280.546875c-79.6875 0-144.289062-64.601563-144.289062-144.289063 0-35.761718 13.082031-68.421874 34.628906-93.632812-30.964844 26.464844-50.660156 65.738281-50.660156 109.664062 0 79.691407 64.601562 144.289063 144.289062 144.289063 43.925782 0 83.199219-19.695313 109.664063-50.660156-25.210937 21.546875-57.867187 34.628906-93.632813 34.628906zm0 0" fill="#db4655"/><path d="m504.5 152.289062c0 79.6875-64.601562 144.289063-144.289062 144.289063-79.691407 0-144.292969-64.601563-144.292969-144.289063s64.601562-144.289062 144.292969-144.289062c79.6875 0 144.289062 64.601562 144.289062 144.289062zm0 0" fill="#b3e59f"/><path d="m400.289062 336.660156c0 79.6875-64.601562 144.289063-144.289062 144.289063s-144.289062-64.601563-144.289062-144.289063c0-79.691406 64.601562-144.289062 144.289062-144.289062s144.289062 64.597656 144.289062 144.289062zm0 0" fill="#a4ccff"/><path d="m276.039062 460.910156c-79.6875 0-144.289062-64.601562-144.289062-144.289062 0-34.742188 12.289062-66.605469 32.742188-91.507813-32.21875 26.460938-52.78125 66.597657-52.78125 111.546875 0 79.6875 64.601562 144.289063 144.289062 144.289063 44.949219 0 85.082031-20.5625 111.546875-52.78125-24.902344 20.453125-56.765625 32.742187-91.507813 32.742187zm0 0" fill="#8bb3ea"/><path d="m215.917969 152.289062c0 38.679688 15.304687 73.71875 40.082031 99.628907 24.773438-25.910157 40.078125-60.949219 40.078125-99.628907 0-38.679687-15.304687-73.722656-40.078125-99.628906-24.773438 25.90625-40.082031 60.949219-40.082031 99.628906zm0 0" fill="#ffe07d"/><path d="m118.621094 292.59375c10.664062 2.515625 21.734375 3.984375 33.167968 3.984375 64.3125 0 118.75-42.097656 137.378907-100.226563-10.664063-2.511718-21.734375-3.980468-33.167969-3.980468-64.3125 0-118.75 42.097656-137.378906 100.222656zm0 0" fill="#d6bdef"/><path d="m222.828125 196.351562c18.632813 58.128907 73.066406 100.226563 137.378906 100.226563 11.4375 0 22.503907-1.46875 33.171875-3.984375-18.632812-58.125-73.066406-100.222656-137.378906-100.222656-11.433594 0-22.503906 1.46875-33.171875 3.980468zm0 0" fill="#c3ddff"/><path d="m167.820312 280.546875c-14.554687 0-28.589843-2.203125-41.835937-6.214844-2.828125 5.890625-5.34375 11.960938-7.363281 18.261719 10.664062 2.515625 21.734375 3.984375 33.167968 3.984375 43.914063 0 83.203126-19.648437 109.652344-50.609375.003906-.015625.007813-.035156.011719-.050781-25.210937 21.546875-57.867187 34.628906-93.632813 34.628906zm0 0" fill="#c3aff0"/><path d="m256 192.371094c-11.433594 0-22.503906 1.46875-33.167969 3.980468 6.714844 20.960938 18.144531 39.78125 32.957031 55.351563.066407.070313.144532.144531.210938.214844 14.9375-15.621094 26.347656-34.605469 33.121094-55.660157-10.640625-2.503906-21.714844-3.886718-33.121094-3.886718zm0 0" fill="#fff"/><path d="m360.207031.5c-39.175781 0-75.890625 14.707031-104.207031 41.578125-28.320312-26.871094-65.035156-41.578125-104.210938-41.578125-83.695312 0-151.789062 68.089844-151.789062 151.789062 0 34.390626 11.839844 68.0625 33.335938 94.820313 19.492187 24.261719 46.230468 42.085937 75.925781 50.769531-3.355469 12.679688-5.054688 25.691406-5.054688 38.78125 0 83.695313 68.09375 151.789063 151.792969 151.789063 83.695312 0 151.789062-68.09375 151.789062-151.789063 0-13.089844-1.699218-26.101562-5.054687-38.78125 29.699219-8.683594 56.433594-26.507812 75.929687-50.769531 21.496094-26.757813 33.332032-60.429687 33.332032-94.820313.003906-83.699218-68.089844-151.789062-151.789063-151.789062zm106.761719 237.210938c-19.066406 23.734374-45.8125 40.632812-75.308594 47.582031-.019531.007812-13.082031 2.804687-24.953125 3.644531-4.132812.292969-7.328125 3.71875-7.125 7.855469.195313 4.015625 3.511719 7.136719 7.484375 7.136719.121094 0 .246094-.003907.371094-.011719 5.609375-.273438 11.285156-.867188 16.890625-1.769531l3.792969-.785157c3.085937 11.539063 4.667968 23.378907 4.667968 35.296875 0 75.425782-61.363281 136.789063-136.789062 136.789063s-136.789062-61.363281-136.789062-136.789063c0-14.15625 2.207031-28.210937 6.554687-41.777344.636719-1.992187.414063-4.160156-.613281-5.980468-1.03125-1.820313-2.773438-3.128906-4.8125-3.609375-29.496094-6.949219-56.242188-23.847657-75.308594-47.582031-19.648438-24.449219-30.03125-53.988282-30.03125-85.421876 0-75.425781 61.363281-136.789062 136.789062-136.789062 35.226563 0 68.253907 13.207031 93.757813 37.335938-2.957031 3.414062-5.785156 6.96875-8.417969 10.621093-2.425781 3.359375-1.667968 8.046875 1.691406 10.472657 1.328126.957031 2.863282 1.417968 4.382813 1.417968 2.328125 0 4.621094-1.082031 6.089844-3.113281 2.980469-4.132813 8.152343-10.460937 12.128906-14.390625 26.109375-27.304688 61.195313-42.34375 98.785156-42.34375 75.429688 0 136.792969 61.363281 136.792969 136.789062 0 31.433594-10.386719 60.972657-30.03125 85.421876zm0 0"/><path d="m261.421875 57.84375c-.46875.488281.371094-.367188 0 0zm0 0"/><path d="m143.042969 246.535156c-3.363281-2.417968-8.050781-1.644531-10.464844 1.71875-3.300781 4.601563-6.375 9.4375-9.132813 14.371094-2.023437 3.617188-.730468 8.1875 2.886719 10.207031 1.15625.648438 2.414063.957031 3.652344.957031 2.628906 0 5.179687-1.386718 6.554687-3.84375 2.484376-4.445312 5.253907-8.800781 8.226563-12.945312 2.414063-3.363281 1.644531-8.050781-1.722656-10.464844zm0 0"/><path d="m375.042969 242.484375c-2.570313-3.246094-7.285157-3.796875-10.535157-1.226563-3.25 2.570313-3.796874 7.285157-1.226562 10.535157 3.160156 4 6.132812 8.21875 8.832031 12.542969 1.421875 2.28125 3.867188 3.53125 6.371094 3.53125 1.355469 0 2.726563-.367188 3.960937-1.136719 3.515626-2.191407 4.585938-6.820313 2.394532-10.335938-2.992188-4.792969-6.289063-9.472656-9.796875-13.910156zm0 0"/><path d="m175.796875 207.785156c-4.796875 2.988282-9.480469 6.28125-13.917969 9.785156-3.25 2.570313-3.800781 7.285157-1.230468 10.539063 1.476562 1.871094 3.671874 2.847656 5.886718 2.847656 1.628906 0 3.269532-.527343 4.648438-1.617187 4-3.160156 8.222656-6.128906 12.546875-8.824219 3.515625-2.191406 4.585937-6.816406 2.398437-10.332031-2.191406-3.515625-6.816406-4.589844-10.332031-2.398438zm0 0"/><path d="m344.347656 213.199219c-4.601562-3.300781-9.4375-6.371094-14.375-9.128907-3.617187-2.019531-8.1875-.726562-10.207031 2.890626-2.019531 3.617187-.722656 8.1875 2.894531 10.207031 4.445313 2.484375 8.804688 5.25 12.949219 8.222656 1.324219.949219 2.851563 1.402344 4.363281 1.402344 2.335938 0 4.636719-1.085938 6.101563-3.128907 2.414062-3.367187 1.640625-8.054687-1.726563-10.464843zm0 0"/><path d="m214.582031 190.589844c-3.984375 1.128906-6.296875 5.277344-5.164062 9.265625.933593 3.296875 3.941406 5.453125 7.210937 5.453125.675782 0 1.367188-.09375 2.050782-.289063 4.902343-1.390625 9.9375-2.519531 14.960937-3.347656 4.085937-.675781 6.855469-4.535156 6.179687-8.621094-.675781-4.089843-4.542968-6.851562-8.625-6.179687-5.578124.921875-11.167968 2.171875-16.613281 3.71875zm0 0"/><path d="m170.15625 295.417969c-.320312-4.082031-3.851562-7.152344-7.9375-6.914063-5.53125.324219-12.039062.613282-15.351562.5-4.417969-.144531-8.121094 3.585938-7.730469 8.160156.324219 3.8125 3.628906 6.710938 7.453125 6.839844 1.675781.054688 3.375.082032 5.046875.082032 2.265625 0 7.113281-.28125 11.519531-.574219 4.183594-.277344 7.328125-3.914063 7-8.09375zm0 0"/><path d="m279.9375 104.328125c1.125 3.015625 3.984375 4.878906 7.027344 4.878906.871094 0 1.757812-.152343 2.621094-.476562 3.882812-1.449219 5.851562-5.773438 4.402343-9.652344-1.976562-5.296875-4.285156-10.539063-6.851562-15.585937-1.878907-3.691407-6.394531-5.160157-10.085938-3.28125-3.691406 1.875-5.160156 6.394531-3.28125 10.082031 2.308594 4.546875 4.386719 9.265625 6.167969 14.035156zm0 0"/><path d="m292.492188 189.644531c-.050782-.027343-.414063-.226562-.550782-.289062-.492187-.234375-1.011718-.429688-1.566406-.554688-5.421875-1.253906-10.992188-2.222656-16.542969-2.878906l-.230469-.027344c-4.109374-.472656-7.835937 2.480469-8.308593 6.59375-.472657 4.117188 2.480469 7.835938 6.597656 8.308594l.171875.019531c2.417969.285156 4.839844.640625 7.246094 1.054688-.964844 2.472656-1.996094 4.917968-3.097656 7.316406-1.726563 3.765625-.074219 8.21875 3.691406 9.945312 1.015625.464844 2.074218.683594 3.121094.683594 2.84375 0 5.5625-1.621094 6.824218-4.375 2.359375-5.144531 4.425782-10.488281 6.214844-15.855468 1.261719-3.78125-.40625-8.125-3.570312-9.941407zm0 0"/><path d="m303.121094 140.488281c-.332032-4.128906-3.960938-7.210937-8.078125-6.875-4.128907.328125-7.207031 3.945313-6.875 8.074219l.019531.242188c.265625 3.496093.398438 7.035156.398438 10.511718 0 1.609375-.027344 3.238282-.082032 4.835938-.148437 4.136718 3.089844 7.613281 7.230469 7.757812.089844.003906.179687.003906.269531.003906 4.019532 0 7.347656-3.1875 7.488282-7.238281.0625-1.769531.09375-3.574219.09375-5.359375 0-3.855468-.148438-7.777344-.445313-11.679687zm0 0"/><path d="m213.609375 274.355469c-4.542969 2.304687-9.269531 4.371093-14.042969 6.148437-3.882812 1.445313-5.859375 5.761719-4.414062 9.644532 1.125 3.023437 3.988281 4.886718 7.03125 4.886718.867187 0 1.75-.152344 2.613281-.472656 5.300781-1.972656 10.550781-4.269531 15.597656-6.828125 3.691407-1.871094 5.167969-6.386719 3.296875-10.082031-1.875-3.695313-6.386718-5.171875-10.082031-3.296875zm0 0"/><path d="m328.632812 285.421875c-4.957031-1.175781-9.902343-2.652344-14.703124-4.382813-3.894532-1.402343-8.191407.617188-9.597657 4.511719-1.40625 3.898438.613281 8.195313 4.511719 9.601563 5.328125 1.917968 10.816406 3.558594 16.320312 4.863281.582032.140625 1.164063.207031 1.738282.207031 3.398437 0 6.472656-2.320312 7.292968-5.769531.957032-4.027344-1.53125-8.074219-5.5625-9.03125zm0 0"/><path d="m280.113281 263.175781c-3.734375-2.695312-9.890625-7.765625-13.832031-11.246093.226562-.257813.457031-.507813.679688-.765626 2.695312-3.144531 2.335937-7.878906-.804688-10.578124-3.144531-2.699219-7.878906-2.335938-10.578125.804687-3.320313 3.871094-6.898437 7.59375-10.625 11.066406-3.03125 2.820313-3.199219 7.566407-.378906 10.597657 1.480469 1.585937 3.480469 2.390624 5.492187 2.390624 1.828125 0 3.664063-.664062 5.109375-2.011718.238281-.222656.46875-.453125.707031-.675782 4.296876 3.828126 11.164063 9.484376 15.445313 12.578126 1.328125.960937 2.863281 1.421874 4.386719 1.421874 2.328125 0 4.621094-1.082031 6.085937-3.109374 2.425781-3.359376 1.667969-8.046876-1.6875-10.472657zm0 0"/><path d="m243.753906 224.121094c-2.675781-4.339844-5.136718-8.875-7.304687-13.480469-1.765625-3.75-6.234375-5.355469-9.980469-3.589844-3.75 1.765625-5.355469 6.234375-3.589844 9.980469 2.410156 5.117188 5.136719 10.152344 8.109375 14.96875 1.417969 2.296875 3.875 3.5625 6.390625 3.5625 1.34375 0 2.703125-.363281 3.933594-1.121094 3.523438-2.175781 4.617188-6.796875 2.441406-10.320312zm0 0"/><path d="m210.359375 176.476562c.585937 3.691407 3.773437 6.324219 7.398437 6.324219.390626 0 .789063-.03125 1.1875-.09375 4.089844-.648437 6.878907-4.492187 6.230469-8.585937l-.023437-.121094c-.804688-5.019531-1.339844-10.121094-1.589844-15.160156-.203125-4.136719-3.726562-7.324219-7.859375-7.125-4.136719.203125-7.324219 3.722656-7.121094 7.859375.273438 5.589843.867188 11.242187 1.769531 16.867187zm0 0"/><path d="m218.035156 126.328125c.582032.140625 1.164063.207031 1.734375.207031 3.398438 0 6.476563-2.324218 7.292969-5.773437 1.175781-4.957031 2.648438-9.902344 4.375-14.699219 1.402344-3.898438-.617188-8.195312-4.515625-9.597656-3.898437-1.40625-8.195313.617187-9.597656 4.511718-1.917969 5.328126-3.550781 10.820313-4.859375 16.324219-.953125 4.03125 1.539062 8.074219 5.570312 9.027344zm0 0"/></svg>