<svg height="511pt" viewBox="0 -40 511.998 511" width="511pt" xmlns="http://www.w3.org/2000/svg"><path d="m480.453125 360.707031h-448.90625c-13.28125 0-24.046875-10.765625-24.046875-24.046875v-304.613281c0-13.28125 10.765625-24.046875 24.046875-24.046875h448.902344c13.285156 0 24.050781 10.765625 24.050781 24.046875v304.613281c0 13.28125-10.765625 24.046875-24.046875 24.046875zm0 0" fill="#dad8db"/><path d="m480.453125 8h-448.90625c-13.28125 0-24.046875 10.765625-24.046875 24.046875v280.566406h497v-280.566406c0-13.28125-10.765625-24.046875-24.046875-24.046875zm0 0" fill="#5d5360"/><path d="m504.5 312.613281h-497v-280.566406c0-13.28125 10.765625-24.046875 24.046875-24.046875h448.902344c13.285156 0 24.050781 10.765625 24.050781 24.046875zm0 0" fill="#c3ddff"/><path d="m488.496094 112.152344c-4.007813-.09375-7.898438-1.746094-10.796875-4.640625l-20.414063-20.414063c-10.128906-10.128906-22.851562-16.339844-35.828125-17.492187-1.71875-.152344-3.433593-.226563-5.132812-.226563-14.988281 0-29.082031 5.835938-39.679688 16.433594l-40.484375 40.484375-9.269531-9.269531c-11.59375-11.59375-26.144531-18.703125-40.976563-20.019532-1.964843-.175781-3.921874-.261718-5.863281-.261718-17.128906 0-33.234375 6.667968-45.347656 18.78125l-50.953125 50.957031c-6.4375-5.589844-13.585938-9.371094-20.871094-11.007813-3.667968-.824218-7.398437-1.242187-11.089844-1.242187-12.84375 0-24.921874 5-34.007812 14.085937l-33.039062 33.035157c-4.539063 4.542969-10.578126 7.046875-17.003907 7.046875h-60.238281v96.191406h497v-192.386719zm0 0" fill="#dbeaff"/><path d="m489.035156 136.257812c-10.628906 0-20.824218-4.222656-28.339844-11.738281l-21.699218-21.703125c-12.523438-12.519531-32.824219-12.519531-45.347656 0l-133.640626 133.640625h244.492188v-100.199219zm0 0" fill="#b3e59f"/><path d="m247.984375 264.515625-79.1875-79.191406c-9.394531-9.390625-24.621094-9.390625-34.011719 0l-33.039062 33.039062c-9.019532 9.019531-21.253906 14.085938-34.007813 14.085938h-60.238281v32.066406zm0 0" fill="#b3e59f"/><path d="m504.5 216.417969h-88.984375c-14.878906 0-29.152344-5.910157-39.675781-16.433594l-67.449219-67.449219c-15.652344-15.652344-41.03125-15.652344-56.683594 0l-115.546875 115.542969c-10.523437 10.523437-24.796875 16.4375-39.675781 16.4375h-88.984375v48.097656h497zm0 0" fill="#95d6a4"/><path d="m304.097656 360.707031h-96.195312l-16.03125 64.128907h128.257812zm0 0" fill="#c8c5c9"/><path d="m324.019531 264.515625c-12.757812 0-24.992187 5.066406-34.007812 14.085937l-34.011719 34.011719h248.5v-48.097656zm0 0" fill="#78c2a4"/><path d="m127.742188 104.191406c0 13.28125-10.765626 24.046875-24.046876 24.046875s-24.050781-10.765625-24.050781-24.046875 10.769531-24.046875 24.050781-24.046875 24.046876 10.765625 24.046876 24.046875zm0 0" fill="#fff"/><path d="m55.597656 336.660156c-13.28125 0-24.046875-10.765625-24.046875-24.046875h-24.050781v24.046875c0 13.28125 10.765625 24.046875 24.046875 24.046875h448.902344c13.285156 0 24.050781-10.765625 24.050781-24.046875zm0 0" fill="#c8c5c9"/><path d="m7.5 264.515625h24.046875v48.097656h-24.046875zm0 0" fill="#78c2a4"/><path d="m7.5 232.449219h24.046875v32.066406h-24.046875zm0 0" fill="#95d6a4"/><path d="m7.5 208.402344h24.046875v24.046875h-24.046875zm0 0" fill="#c3ddff"/><path d="m31.546875 8v200.402344h-24.046875v-176.355469c0-13.28125 10.765625-24.046875 24.046875-24.046875zm0 0" fill="#a4ccff"/><path d="m310.109375 384.757812-6.011719-24.050781h-96.195312l-6.011719 24.050781zm0 0" fill="#b6b1b7"/><path d="m480.453125.5h-448.90625c-17.394531 0-31.546875 14.152344-31.546875 31.546875v304.613281c0 17.394532 14.152344 31.546875 31.546875 31.546875h166.75l-12.28125 49.128907h-10.175781c-4.144532 0-7.5 3.359374-7.5 7.5 0 4.144531 3.355468 7.5 7.5 7.5h160.320312c4.140625 0 7.5-3.355469 7.5-7.5 0-4.140626-3.359375-7.5-7.5-7.5h-10.175781l-12.285156-49.128907h166.75c17.398437 0 31.546875-14.152343 31.546875-31.546875v-304.613281c.003906-17.394531-14.148438-31.546875-31.542969-31.546875zm16.546875 304.609375h-222.957031c.453125-.421875.90625-.839844 1.347656-1.28125l19.921875-19.921875c7.667969-7.667969 17.863281-11.890625 28.707031-11.890625h172.980469zm-465.453125-289.609375h448.902344c9.125 0 16.550781 7.421875 16.550781 16.546875v96.710937h-7.964844c-8.699218 0-16.882812-3.390624-23.035156-9.542968l-21.703125-21.699219c-7.472656-7.476563-17.40625-11.589844-27.976563-11.589844-10.566406 0-20.503906 4.113281-27.976562 11.589844l-52.183594 52.183594-22.46875-22.46875c-18.550781-18.550781-48.738281-18.550781-67.289062 0l-62.546875 62.550781-9.757813-9.757812c-5.957031-5.957032-13.882812-9.242188-22.308594-9.242188-8.425781 0-16.351562 3.285156-22.308593 9.242188l-33.035157 33.035156c-7.667968 7.667968-17.863281 11.890625-28.707031 11.890625h-52.738281v-192.902344c0-9.125 7.421875-16.546875 16.546875-16.546875zm-16.546875 224.449219h52.738281c14.851563 0 28.8125-5.78125 39.3125-16.285157l33.039063-33.035156c3.125-3.125 7.28125-4.847656 11.699218-4.847656 4.421876 0 8.578126 1.722656 11.703126 4.847656l9.757812 9.757813-42.390625 42.390625c-9.183594 9.183594-21.390625 14.238281-34.375 14.238281h-81.484375zm295.523438 177.386719h-109.046876l12.28125-49.128907h84.484376zm169.929687-64.128907h-448.90625c-9.125 0-16.546875-7.421875-16.546875-16.546875v-16.550781h16.546875c4.140625 0 7.5-3.355469 7.5-7.5 0-4.140625-3.359375-7.5-7.5-7.5h-16.546875v-33.09375h81.484375c16.992187 0 32.964844-6.617187 44.980469-18.632813l115.546875-115.546874c6.152343-6.152344 14.332031-9.542969 23.035156-9.542969s16.886719 3.390625 23.039063 9.542969l35.796874 35.800781c2.929688 2.929687 7.679688 2.929687 10.605469 0 2.929688-2.929688 2.929688-7.679688 0-10.609375l-2.722656-2.722656 52.183594-52.183594c9.582031-9.578125 25.164062-9.578125 34.742187 0l21.699219 21.699218c8.988281 8.988282 20.9375 13.9375 33.644531 13.9375h7.964844v65.160157h-81.484375c-12.984375 0-25.191406-5.058594-34.375-14.238281l-7.621094-7.621094c-2.929687-2.929688-7.675781-2.929688-10.605469 0-2.929687 2.929687-2.929687 7.675781 0 10.605468l7.621094 7.621094c12.015625 12.015625 27.988282 18.632813 44.980469 18.632813h81.484375v33.097656h-172.980469c-14.851562 0-28.8125 5.785156-39.3125 16.285156l-19.921875 19.921875c-7.667968 7.667969-17.863281 11.890625-28.707031 11.890625h-172.46875c-4.140625 0-7.5 3.359375-7.5 7.5 0 4.144531 3.359375 7.5 7.5 7.5h433.390625v16.546875c0 9.125-7.421875 16.546875-16.546875 16.546875zm0 0"/><path d="m47.582031 111.691406h25.472657c2.785156 11.378906 11.757812 20.355469 23.140624 23.140625v25.472657c0 4.140624 3.355469 7.5 7.5 7.5 4.140626 0 7.5-3.359376 7.5-7.5v-25.472657c11.378907-2.785156 20.351563-11.761719 23.140626-23.140625h25.472656c4.140625 0 7.5-3.355468 7.5-7.5 0-4.140625-3.359375-7.5-7.5-7.5h-25.472656c-2.789063-11.378906-11.761719-20.351562-23.140626-23.140625v-25.472656c0-4.140625-3.359374-7.5-7.5-7.5-4.144531 0-7.5 3.359375-7.5 7.5v25.472656c-11.382812 2.789063-20.355468 11.761719-23.140624 23.140625h-25.472657c-4.144531 0-7.5 3.359375-7.5 7.5 0 4.144532 3.355469 7.5 7.5 7.5zm56.109375-24.046875c9.125 0 16.550782 7.421875 16.550782 16.546875s-7.425782 16.550782-16.550782 16.550782-16.546875-7.425782-16.546875-16.550782 7.421875-16.546875 16.546875-16.546875zm0 0"/><path d="m58.734375 138.527344c-2.933594 2.921875-2.945313 7.671875-.023437 10.605468l.058593.058594c1.457031 1.464844 3.363281 2.195313 5.273438 2.195313 1.914062 0 3.835937-.738281 5.304687-2.203125 2.933594-2.921875 2.917969-7.699219-.003906-10.632813-2.925781-2.9375-7.671875-2.945312-10.609375-.023437zm0 0"/><path d="m138.136719 69.847656c1.457031 1.457032 3.359375 2.179688 5.261719 2.179688 1.921874 0 3.84375-.738282 5.316406-2.210938 2.929687-2.925781 2.902344-7.703125-.027344-10.632812-2.929688-2.929688-7.679688-2.929688-10.605469 0-2.929687 2.929687-2.929687 7.675781 0 10.605468zm0 0"/><path d="m58.78125 69.847656c1.457031 1.457032 3.359375 2.179688 5.261719 2.179688 1.921875 0 3.84375-.738282 5.316406-2.210938 2.929687-2.925781 2.902344-7.703125-.027344-10.632812-2.929687-2.929688-7.679687-2.929688-10.605469 0-2.929687 2.929687-2.929687 7.675781 0 10.605468zm0 0"/><path d="m138.089844 138.527344c-2.933594 2.921875-2.945313 7.671875-.023438 10.605468l.058594.058594c1.457031 1.464844 3.363281 2.195313 5.273438 2.195313 1.914062 0 3.835937-.738281 5.304687-2.203125 2.9375-2.921875 2.917969-7.699219-.003906-10.632813-2.925781-2.9375-7.671875-2.945312-10.609375-.023437zm0 0"/></svg>