<svg height="511pt" viewBox="0 -40 511.998 511" width="511pt" xmlns="http://www.w3.org/2000/svg"><path d="m480.453125.5h-448.90625c-17.394531 0-31.546875 14.152344-31.546875 31.546875v304.613281c0 17.394532 14.152344 31.546875 31.546875 31.546875h166.75l-12.28125 49.128907h-10.175781c-4.144532 0-7.5 3.359374-7.5 7.5 0 4.144531 3.355468 7.5 7.5 7.5h160.320312c4.140625 0 7.5-3.355469 7.5-7.5 0-4.140626-3.359375-7.5-7.5-7.5h-10.175781l-12.285156-49.128907h166.75c17.398437 0 31.546875-14.152343 31.546875-31.546875v-304.613281c.003906-17.394531-14.148438-31.546875-31.542969-31.546875zm16.546875 304.609375h-222.957031c.453125-.421875.90625-.839844 1.347656-1.28125l19.921875-19.921875c7.667969-7.667969 17.863281-11.890625 28.707031-11.890625h172.980469zm-465.453125-289.609375h448.902344c9.125 0 16.550781 7.421875 16.550781 16.546875v96.710937h-7.964844c-8.699218 0-16.882812-3.390624-23.035156-9.542968l-21.703125-21.699219c-7.472656-7.476563-17.40625-11.589844-27.976563-11.589844-10.566406 0-20.503906 4.113281-27.976562 11.589844l-52.183594 52.183594-22.46875-22.46875c-18.550781-18.550781-48.738281-18.550781-67.289062 0l-62.546875 62.550781-9.757813-9.757812c-5.957031-5.957032-13.882812-9.242188-22.308594-9.242188-8.425781 0-16.351562 3.285156-22.308593 9.242188l-33.035157 33.035156c-7.667968 7.667968-17.863281 11.890625-28.707031 11.890625h-52.738281v-192.902344c0-9.125 7.421875-16.546875 16.546875-16.546875zm-16.546875 224.449219h52.738281c14.851563 0 28.8125-5.78125 39.3125-16.285157l33.039063-33.035156c3.125-3.125 7.28125-4.847656 11.699218-4.847656 4.421876 0 8.578126 1.722656 11.703126 4.847656l9.757812 9.757813-42.390625 42.390625c-9.183594 9.183594-21.390625 14.238281-34.375 14.238281h-81.484375zm295.523438 177.386719h-109.046876l12.28125-49.128907h84.484376zm169.929687-64.128907h-448.90625c-9.125 0-16.546875-7.421875-16.546875-16.546875v-16.550781h16.546875c4.140625 0 7.5-3.355469 7.5-7.5 0-4.140625-3.359375-7.5-7.5-7.5h-16.546875v-33.09375h81.484375c16.992187 0 32.964844-6.617187 44.980469-18.632813l115.546875-115.546874c6.152343-6.152344 14.332031-9.542969 23.035156-9.542969s16.886719 3.390625 23.039063 9.542969l35.796874 35.800781c2.929688 2.929687 7.679688 2.929687 10.605469 0 2.929688-2.929688 2.929688-7.679688 0-10.609375l-2.722656-2.722656 52.183594-52.183594c9.582031-9.578125 25.164062-9.578125 34.742187 0l21.699219 21.699218c8.988281 8.988282 20.9375 13.9375 33.644531 13.9375h7.964844v65.160157h-81.484375c-12.984375 0-25.191406-5.058594-34.375-14.238281l-7.621094-7.621094c-2.929687-2.929688-7.675781-2.929688-10.605469 0-2.929687 2.929687-2.929687 7.675781 0 10.605468l7.621094 7.621094c12.015625 12.015625 27.988282 18.632813 44.980469 18.632813h81.484375v33.097656h-172.980469c-14.851562 0-28.8125 5.785156-39.3125 16.285156l-19.921875 19.921875c-7.667968 7.667969-17.863281 11.890625-28.707031 11.890625h-172.46875c-4.140625 0-7.5 3.359375-7.5 7.5 0 4.144531 3.359375 7.5 7.5 7.5h433.390625v16.546875c0 9.125-7.421875 16.546875-16.546875 16.546875zm0 0"/><path d="m47.582031 111.691406h25.472657c2.785156 11.378906 11.757812 20.355469 23.140624 23.140625v25.472657c0 4.140624 3.355469 7.5 7.5 7.5 4.140626 0 7.5-3.359376 7.5-7.5v-25.472657c11.378907-2.785156 20.351563-11.761719 23.140626-23.140625h25.472656c4.140625 0 7.5-3.355468 7.5-7.5 0-4.140625-3.359375-7.5-7.5-7.5h-25.472656c-2.789063-11.378906-11.761719-20.351562-23.140626-23.140625v-25.472656c0-4.140625-3.359374-7.5-7.5-7.5-4.144531 0-7.5 3.359375-7.5 7.5v25.472656c-11.382812 2.789063-20.355468 11.761719-23.140624 23.140625h-25.472657c-4.144531 0-7.5 3.359375-7.5 7.5 0 4.144532 3.355469 7.5 7.5 7.5zm56.109375-24.046875c9.125 0 16.550782 7.421875 16.550782 16.546875s-7.425782 16.550782-16.550782 16.550782-16.546875-7.425782-16.546875-16.550782 7.421875-16.546875 16.546875-16.546875zm0 0"/><path d="m58.734375 138.527344c-2.933594 2.921875-2.945313 7.671875-.023437 10.605468l.058593.058594c1.457031 1.464844 3.363281 2.195313 5.273438 2.195313 1.914062 0 3.835937-.738281 5.304687-2.203125 2.933594-2.921875 2.917969-7.699219-.003906-10.632813-2.925781-2.9375-7.671875-2.945312-10.609375-.023437zm0 0"/><path d="m138.136719 69.847656c1.457031 1.457032 3.359375 2.179688 5.261719 2.179688 1.921874 0 3.84375-.738282 5.316406-2.210938 2.929687-2.925781 2.902344-7.703125-.027344-10.632812-2.929688-2.929688-7.679688-2.929688-10.605469 0-2.929687 2.929687-2.929687 7.675781 0 10.605468zm0 0"/><path d="m58.78125 69.847656c1.457031 1.457032 3.359375 2.179688 5.261719 2.179688 1.921875 0 3.84375-.738282 5.316406-2.210938 2.929687-2.925781 2.902344-7.703125-.027344-10.632812-2.929687-2.929688-7.679687-2.929688-10.605469 0-2.929687 2.929687-2.929687 7.675781 0 10.605468zm0 0"/><path d="m138.089844 138.527344c-2.933594 2.921875-2.945313 7.671875-.023438 10.605468l.058594.058594c1.457031 1.464844 3.363281 2.195313 5.273438 2.195313 1.914062 0 3.835937-.738281 5.304687-2.203125 2.9375-2.921875 2.917969-7.699219-.003906-10.632813-2.925781-2.9375-7.671875-2.945312-10.609375-.023437zm0 0"/></svg>