<svg height="512pt" viewBox="0 -48 512 512" width="512pt" xmlns="http://www.w3.org/2000/svg"><path d="m504.5 47.0625c4.140625 0 7.5-3.355469 7.5-7.5v-32.0625c0-4.140625-3.359375-7.5-7.5-7.5h-32.0625c-4.144531 0-7.5 3.359375-7.5 7.5v8.53125h-417.875v-8.53125c0-4.140625-3.355469-7.5-7.5-7.5h-32.0625c-4.140625 0-7.5 3.359375-7.5 7.5v32.0625c0 4.144531 3.359375 7.5 7.5 7.5h8.53125v321.679688h-8.53125c-4.140625 0-7.5 3.359374-7.5 7.5v32.0625c0 4.144531 3.359375 7.5 7.5 7.5h32.0625c4.144531 0 7.5-3.355469 7.5-7.5v-8.53125h417.871094v8.53125c0 4.144531 3.359375 7.5 7.5 7.5h32.066406c4.140625 0 7.5-3.355469 7.5-7.5v-32.0625c0-4.140626-3.359375-7.5-7.5-7.5h-8.53125v-321.679688zm-24.5625-32.0625h17.0625v17.0625h-17.0625zm-464.9375 0h17.0625v17.0625h-17.0625zm17.0625 385.804688h-17.0625v-17.0625h17.0625zm464.9375 0h-17.0625v-17.0625h17.0625zm-16.03125-32.0625h-8.53125c-4.144531 0-7.5 3.359374-7.5 7.5v8.53125h-417.875v-8.53125c0-4.140626-3.355469-7.5-7.5-7.5h-8.53125v-321.679688h8.53125c4.144531 0 7.5-3.355469 7.5-7.5v-8.53125h417.871094v8.53125c0 4.144531 3.359375 7.5 7.5 7.5h8.535156zm0 0"/><path d="m280.046875 304.613281h-10.917969l-86.308594-219.695312c-1.128906-2.867188-3.898437-4.757813-6.980468-4.757813-3.082032 0-5.855469 1.886719-6.980469 4.757813l-86.308594 219.695312h-10.921875c-4.140625 0-7.5 3.355469-7.5 7.5 0 4.140625 3.359375 7.5 7.5 7.5h32.0625c4.144532 0 7.5-3.359375 7.5-7.5 0-4.144531-3.355468-7.5-7.5-7.5h-5.027344l16.152344-41.113281h81.964844l16.152344 41.113281h-5.03125c-4.140625 0-7.5 3.355469-7.5 7.5 0 4.140625 3.359375 7.5 7.5 7.5h72.148437c4.140625 0 7.5-3.359375 7.5-7.5 0-4.144531-3.359375-7.5-7.503906-7.5zm-97.210937-117.628906c-1.515626-3.855469-5.871094-5.753906-9.722657-4.238281-3.855469 1.515625-5.753906 5.867187-4.238281 9.722656l22.011719 56.03125h-70.175781l35.089843-89.316406 1.332031 3.394531c1.160157 2.957031 3.988282 4.761719 6.980469 4.761719.914063 0 1.839844-.167969 2.742188-.519532 3.855469-1.515624 5.753906-5.871093 4.238281-9.722656l-7.238281-18.421875 11.984375-30.5 77.171875 196.4375h-23.964844zm0 0"/><path d="m440.371094 304.613281h-8.53125v-84.6875c0-28.445312-23.144532-51.585937-51.589844-51.585937h-32.0625c-28.449219 0-51.589844 23.140625-51.589844 51.585937v4.007813c0 4.140625 3.355469 7.5 7.5 7.5h32.0625c4.144532 0 7.5-3.359375 7.5-7.5v-20.039063c0-11.335937 9.222656-20.558593 20.558594-20.558593s20.554688 9.222656 20.554688 20.558593v11.210938c0 6.933593-4.375 13.183593-10.890626 15.550781l-19.433593 7.066406c-.003907.003906-.007813.003906-.007813.003906-.007812 0-.015625.003907-.019531.007813l-34.269531 12.460937c-14.089844 5.121094-23.554688 18.636719-23.554688 33.628907 0 19.734375 16.050782 35.785156 35.785156 35.785156h27.828126c10.863281 0 20.71875-4.402344 27.875-11.515625 4.109374 6.890625 11.632812 11.515625 20.222656 11.515625h32.0625c4.144531 0 7.5-3.355469 7.5-7.5 0-4.140625-3.359375-7.496094-7.5-7.496094zm-107.175782-118.0625c-2.882812 5.136719-4.535156 11.050781-4.535156 17.34375v12.542969h-16.898437c1.265625-13.335938 9.71875-24.605469 21.433593-29.886719zm-21.597656 97.277344c0-8.710937 5.5-16.558594 13.679688-19.535156l5.34375-1.941407c-1.273438 3.867188-1.960938 7.96875-1.960938 12.179688v13.53125c0 6.066406 1.726563 11.734375 4.703125 16.550781h-.980469c-11.460937 0-20.785156-9.324219-20.785156-20.785156zm88.175782 12.25v-32.058594c0-4.140625-3.359376-7.5-7.5-7.5-4.140626 0-7.5 3.359375-7.5 7.5v16.027344c0 13.546875-11.019532 24.566406-24.5625 24.566406-9.125 0-16.550782-7.425781-16.550782-16.550781v-13.53125c0-10.121094 6.390625-19.246094 15.90625-22.707031l19.441406-7.066407c12.421876-4.519531 20.765626-16.433593 20.765626-29.652343v-11.210938c0-6.289062-1.644532-12.195312-4.523438-17.328125 12.714844 5.742188 21.589844 18.53125 21.589844 33.359375v84.6875h-8.53125c-4.707032 0-8.535156-3.828125-8.535156-8.535156zm0 0"/></svg>