<svg height="511pt" viewBox="1 -60 511.999 511" width="511pt" xmlns="http://www.w3.org/2000/svg"><path d="m411.074219 72.679688c-21.273438-44.015626-65.871094-72.179688-114.992188-72.179688-42.039062 0-80.664062 20.300781-104.621093 54.648438-9.941407-4.300782-20.757813-6.550782-31.652344-6.550782-18.175782 0-35.949219 6.289063-50.042969 17.710938-12.296875 9.96875-21.394531 23.46875-26.03125 38.488281-46.523437 2.058594-83.734375 40.550781-83.734375 87.574219 0 48.335937 39.324219 87.660156 87.660156 87.660156h32.066406c4.140626 0 7.5-3.355469 7.5-7.5 0-4.140625-3.359374-7.5-7.5-7.5h-32.066406c-40.0625 0-72.660156-32.59375-72.660156-72.660156s32.597656-72.660156 72.660156-72.660156c.160156 0 .316406.015624.476563.027343.390625.027344.78125.050781 1.179687.0625 3.574219.097657 6.703125-2.363281 7.488282-5.847656 3.179687-14.074219 11.136718-26.855469 22.40625-35.988281 11.597656-9.398438 25.636718-14.367188 40.597656-14.367188 10.722656 0 21.347656 2.683594 30.722656 7.753906 3.484375 1.886719 7.835938.738282 9.933594-2.625 20.792968-33.328124 56.539062-53.226562 95.617187-53.226562 44.832031 0 85.394531 26.589844 103.34375 67.742188 1.214844 2.789062 4.015625 4.554687 7.03125 4.5.433594-.007813.863281-.035157 1.289063-.066407.1875-.011719.371094-.03125.5625-.03125 48.90625 0 88.695312 39.785157 88.695312 88.691407s-39.789062 88.695312-88.695312 88.695312h-23.347656l56.019531-56.023438c9.175781-9.171874 9.175781-24.101562 0-33.277343-4.445313-4.445313-10.351563-6.894531-16.636719-6.894531-6.289062 0-12.195312 2.449218-16.640625 6.894531l-20.730469 20.726562c-2.925781 2.929688-2.925781 7.679688 0 10.605469 2.929688 2.929688 7.679688 2.929688 10.605469 0l4.089844-4.085938 12.066406 12.066407-90.683594 90.683593-12.066406-12.066406 63.921875-63.921875c2.929688-2.929687 2.929688-7.679687 0-10.609375-2.925781-2.929687-7.675781-2.925781-10.605469 0l-12.621093 12.621094v-71.445312c0-4.140626-3.355469-7.5-7.5-7.5h-176.359376c-4.140624 0-7.5 3.359374-7.5 7.5v104.726562h-8.53125c-4.140624 0-7.5 3.355469-7.5 7.5 0 4.140625 3.359376 7.5 7.5 7.5h8.53125v104.726562c0 4.140626 3.359376 7.5 7.5 7.5h176.355469c4.144531 0 7.5-3.359374 7.5-7.5v-86.449218l18.28125-18.277344h38.347657c57.179687 0 103.695312-46.519531 103.695312-103.695312 0-56.25-45.019531-102.183594-100.925781-103.65625zm1.199219 119.691406 6.03125-6.035156c1.613281-1.613282 3.753906-2.5 6.035156-2.5 2.277344 0 4.421875.890624 6.03125 2.5 3.328125 3.328124 3.328125 8.742187 0 12.066406l-6.03125 6.035156zm-111.734376 112.0625 11.734376 11.738281-23.46875 11.734375zm36.136719 72.824218h-161.355469v-209.453124h161.355469v78.949218l-47.273437 47.273438c-.570313.570312-1.042969 1.226562-1.40625 1.949218l-22.671875 45.347657c-1.445313 2.886719-.878907 6.375 1.40625 8.65625 1.4375 1.4375 3.359375 2.195312 5.304687 2.195312 1.136719 0 2.285156-.257812 3.351563-.792969l45.34375-22.671874c.722656-.359376 1.378906-.832032 1.949219-1.40625l13.996093-13.996094zm0 0"/><path d="m311.597656 216.417969c0-4.140625-3.359375-7.5-7.5-7.5h-96.195312c-4.140625 0-7.5 3.359375-7.5 7.5 0 4.144531 3.359375 7.5 7.5 7.5h96.195312c4.140625 0 7.5-3.355469 7.5-7.5zm0 0"/><path d="m295.5625 248.484375c0-4.144531-3.355469-7.5-7.5-7.5h-64.128906c-4.140625 0-7.5 3.355469-7.5 7.5 0 4.140625 3.359375 7.5 7.5 7.5h64.128906c4.144531 0 7.5-3.359375 7.5-7.5zm0 0"/></svg>