<svg height="511pt" viewBox="1 -60 511.999 511" width="511pt" xmlns="http://www.w3.org/2000/svg"><path d="m408.304688 80.144531c-.675782 0-1.332032.085938-2.003907.101563-18.539062-42.507813-60.886719-72.246094-110.222656-72.246094-43.070313 0-80.742187 22.722656-101.980469 56.757812-10.199218-5.523437-21.878906-8.660156-34.292968-8.660156-34.359376 0-63.054688 24.039063-70.320313 56.203125-.613281-.011719-1.207031-.089843-1.824219-.089843-44.269531 0-80.160156 35.886718-80.160156 80.160156 0 44.269531 35.890625 80.160156 80.160156 80.160156h320.644532c53.128906 0 96.195312-43.066406 96.195312-96.195312 0-53.125-43.066406-96.191407-96.195312-96.191407zm0 0" fill="#dbeaff"/><path d="m167.820312 160.304688h176.355469v224.453124h-176.355469zm0 0" fill="#f4dbb3"/><path d="m103.703125 209.859375c-.542969-39.390625 23.140625-74.902344 57.820313-93.582031 14.261718-7.6875 27.984374-11.207032 41.085937-11.9375 12.167969-.679688 21.539063-10.433594 21.339844-22.621094-.011719-.523438-.015625-1.046875-.015625-1.574219 0-22.1875 6.988281-42.714843 18.808594-59.613281-20.011719 9.96875-36.863282 25.34375-48.644532 44.226562-10.199218-5.523437-21.878906-8.660156-34.292968-8.660156-34.359376 0-63.054688 24.039063-70.316407 56.203125-.613281-.011719-1.210937-.089843-1.828125-.089843-46.035156 0-83.011718 38.808593-79.988281 85.496093 2.757813 42.605469 40.039063 74.824219 82.734375 74.824219h35.46875c-13.570312-17.335938-21.84375-39.027344-22.171875-62.671875zm0 0" fill="#c3ddff"/><path d="m223.933594 360.710938c-17.707032 0-32.0625-14.359376-32.0625-32.066407v-168.339843h-24.050782v224.453124h176.355469v-24.046874zm0 0" fill="#eac89f"/><path d="m292.359375 297.742188 116.015625-116.019532c6.90625-6.902344 18.164062-8.226562 25.722656-2.042968 8.695313 7.109374 9.171875 19.953124 1.429688 27.695312l-116.769532 116.769531c-2.242187 2.242188-4.910156 4.023438-7.847656 5.230469l-30.875 12.710938c-3.539062 1.457031-7.078125-2.082032-5.621094-5.621094l12.710938-30.871094c1.210938-2.9375 2.988281-5.605469 5.234375-7.851562zm0 0" fill="#ecbd83"/><path d="m408.375 181.722656c6.90625-6.902344 18.164062-8.226562 25.726562-2.046875 8.691407 7.113281 9.167969 19.957031 1.429688 27.695313l-10.136719 10.136718-26.402343-26.402343zm0 0" fill="#ffc269"/><path d="m293.621094 296.476562 105.371094-105.371093 26.402343 26.402343-105.371093 105.371094zm0 0" fill="#ff8086"/><path d="m411.074219 72.679688c-21.273438-44.015626-65.871094-72.179688-114.992188-72.179688-42.039062 0-80.664062 20.300781-104.621093 54.648438-9.941407-4.300782-20.757813-6.550782-31.652344-6.550782-18.175782 0-35.949219 6.289063-50.042969 17.710938-12.296875 9.96875-21.394531 23.46875-26.03125 38.488281-46.523437 2.058594-83.734375 40.550781-83.734375 87.574219 0 48.335937 39.324219 87.660156 87.660156 87.660156h32.066406c4.140626 0 7.5-3.355469 7.5-7.5 0-4.140625-3.359374-7.5-7.5-7.5h-32.066406c-40.0625 0-72.660156-32.59375-72.660156-72.660156s32.597656-72.660156 72.660156-72.660156c.160156 0 .316406.015624.476563.027343.390625.027344.78125.050781 1.179687.0625 3.574219.097657 6.703125-2.363281 7.488282-5.847656 3.179687-14.074219 11.136718-26.855469 22.40625-35.988281 11.597656-9.398438 25.636718-14.367188 40.597656-14.367188 10.722656 0 21.347656 2.683594 30.722656 7.753906 3.484375 1.886719 7.835938.738282 9.933594-2.625 20.792968-33.328124 56.539062-53.226562 95.617187-53.226562 44.832031 0 85.394531 26.589844 103.34375 67.742188 1.214844 2.789062 4.015625 4.554687 7.03125 4.5.433594-.007813.863281-.035157 1.289063-.066407.1875-.011719.371094-.03125.5625-.03125 48.90625 0 88.695312 39.785157 88.695312 88.691407s-39.789062 88.695312-88.695312 88.695312h-23.347656l56.019531-56.023438c9.175781-9.171874 9.175781-24.101562 0-33.277343-4.445313-4.445313-10.351563-6.894531-16.636719-6.894531-6.289062 0-12.195312 2.449218-16.640625 6.894531l-20.730469 20.726562c-2.925781 2.929688-2.925781 7.679688 0 10.605469 2.929688 2.929688 7.679688 2.929688 10.605469 0l4.089844-4.085938 12.066406 12.066407-90.683594 90.683593-12.066406-12.066406 63.921875-63.921875c2.929688-2.929687 2.929688-7.679687 0-10.609375-2.925781-2.929687-7.675781-2.925781-10.605469 0l-12.621093 12.621094v-71.445312c0-4.140626-3.355469-7.5-7.5-7.5h-176.359376c-4.140624 0-7.5 3.359374-7.5 7.5v104.726562h-8.53125c-4.140624 0-7.5 3.355469-7.5 7.5 0 4.140625 3.359376 7.5 7.5 7.5h8.53125v104.726562c0 4.140626 3.359376 7.5 7.5 7.5h176.355469c4.144531 0 7.5-3.359374 7.5-7.5v-86.449218l18.28125-18.277344h38.347657c57.179687 0 103.695312-46.519531 103.695312-103.695312 0-56.25-45.019531-102.183594-100.925781-103.65625zm1.199219 119.691406 6.03125-6.035156c1.613281-1.613282 3.753906-2.5 6.035156-2.5 2.277344 0 4.421875.890624 6.03125 2.5 3.328125 3.328124 3.328125 8.742187 0 12.066406l-6.03125 6.035156zm-111.734376 112.0625 11.734376 11.738281-23.46875 11.734375zm36.136719 72.824218h-161.355469v-209.453124h161.355469v78.949218l-47.273437 47.273438c-.570313.570312-1.042969 1.226562-1.40625 1.949218l-22.671875 45.347657c-1.445313 2.886719-.878907 6.375 1.40625 8.65625 1.4375 1.4375 3.359375 2.195312 5.304687 2.195312 1.136719 0 2.285156-.257812 3.351563-.792969l45.34375-22.671874c.722656-.359376 1.378906-.832032 1.949219-1.40625l13.996093-13.996094zm0 0"/><path d="m311.597656 216.417969c0-4.140625-3.359375-7.5-7.5-7.5h-96.195312c-4.140625 0-7.5 3.359375-7.5 7.5 0 4.144531 3.359375 7.5 7.5 7.5h96.195312c4.140625 0 7.5-3.355469 7.5-7.5zm0 0"/><path d="m295.5625 248.484375c0-4.144531-3.355469-7.5-7.5-7.5h-64.128906c-4.140625 0-7.5 3.355469-7.5 7.5 0 4.140625 3.359375 7.5 7.5 7.5h64.128906c4.144531 0 7.5-3.359375 7.5-7.5zm0 0"/></svg>