<svg height="511pt" viewBox="0 -40 511.9998 511" width="511pt" xmlns="http://www.w3.org/2000/svg"><path d="m512 24.03125c0-12.976562-10.558594-23.53125-23.53125-23.53125h-176.355469c-12.976562 0-23.535156 10.558594-23.535156 23.53125v64.648438h-3.632813c-.058593-.035157-.144531-.097657-.261718-.199219-7.203125-6.3125-16.765625-8.984375-26.230469-7.332031-12.796875 2.234374-23.28125 12.703124-25.5 25.460937-1.617187 9.3125.898437 18.753906 6.910156 25.898437 6.015625 7.152344 14.816407 11.25 24.152344 11.25 7.589844 0 14.9375-2.785156 20.695313-7.84375.097656-.082031.171874-.136718.222656-.171874h3.644531v64.648437c0 6.1875 2.410156 11.824219 6.328125 16.03125-3.921875 4.203125-6.328125 9.839844-6.328125 16.03125v65.011719c0 8.066406 6.566406 14.632812 14.636719 14.632812h4.195312c3.589844 0 7.03125-1.355468 9.953125-3.914062 3.828125-3.359375 8.714844-4.71875 13.761719-3.839844 6.570312 1.148438 12.167969 6.722656 13.300781 13.253906.875 5.015625-.410156 9.871094-3.609375 13.675782-3.15625 3.753906-7.773437 5.90625-12.671875 5.90625-5.054687 0-8.660156-2.238282-10.796875-4.113282-2.90625-2.554687-6.332031-3.902344-9.90625-3.902344h-4.226562c-8.070313 0-14.636719 6.5625-14.636719 14.632813v65.011719c0 12.976562 10.558594 23.53125 23.535156 23.53125h176.355469c12.976562 0 23.53125-10.554688 23.53125-23.53125v-176.355469c0-6.191406-2.40625-11.828125-6.328125-16.035156 3.921875-4.203125 6.328125-9.839844 6.328125-16.03125zm-15 384.777344c0 4.703125-3.828125 8.53125-8.53125 8.53125h-176.355469c-4.707031 0-8.535156-3.828125-8.535156-8.53125v-64.648438h3.648437c.050782.035156.125.085938.222657.171875 5.753906 5.058594 13.105469 7.84375 20.695312 7.84375 9.335938 0 18.136719-4.097656 24.152344-11.25 6.011719-7.144531 8.527344-16.585937 6.910156-25.898437-2.21875-12.753906-12.703125-23.226563-25.5-25.460938-9.464843-1.648437-19.027343 1.019532-26.230469 7.335938-.117187.101562-.203124.160156-.261718.195312h-3.636719v-64.648437c0-4.703125 3.828125-8.53125 8.535156-8.53125h8.011719c4.140625 0 7.5-3.355469 7.5-7.5 0-4.140625-3.359375-7.5-7.5-7.5h-8.011719c-4.707031 0-8.535156-3.828125-8.535156-8.53125v-65.011719c0-8.070312-6.5625-14.632812-14.632813-14.632812h-4.226562c-3.578125 0-7.003906 1.347656-9.90625 3.902343-2.136719 1.875-5.742188 4.113281-10.796875 4.113281-4.894531 0-9.515625-2.152343-12.671875-5.90625-3.199219-3.804687-4.480469-8.660156-3.609375-13.675781 1.132813-6.53125 6.726563-12.105469 13.300781-13.253906 5.046875-.878906 9.933594.480469 13.761719 3.839844 2.921875 2.5625 6.363281 3.914062 9.953125 3.914062h4.195312c8.070313 0 14.632813-6.5625 14.632813-14.632812v-65.011719c0-4.703125 3.828125-8.53125 8.535156-8.53125h176.355469c4.703125 0 8.53125 3.828125 8.53125 8.53125v176.355469c0 4.707031-3.828125 8.53125-8.53125 8.53125h-64.644531v-3.644531c.03125-.050782.085937-.125.167969-.222657 5.058593-5.757812 7.847656-13.105469 7.847656-20.695312 0-9.335938-4.101563-18.140625-11.25-24.152344-7.148438-6.007813-16.589844-8.53125-25.902344-6.910156-12.753906 2.21875-23.226562 12.703125-25.460938 25.5-1.652343 9.46875 1.019532 19.027343 7.335938 26.230469.101562.113281.160156.203124.195312.261718v3.632813h-24.566406c-4.140625 0-7.5 3.359375-7.5 7.5 0 4.144531 3.359375 7.5 7.5 7.5h24.929688c8.070312 0 14.636718-6.5625 14.636718-14.632813v-4.195312c0-3.589844-1.355468-7.03125-3.917968-9.957032-3.355469-3.824218-4.71875-8.710937-3.835938-13.757812 1.148438-6.574219 6.722656-12.167969 13.253906-13.304688 5.011719-.871093 9.871094.410157 13.675782 3.613282 3.75 3.15625 5.902344 7.773437 5.902344 12.671875 0 5.054687-2.234376 8.660156-4.113282 10.792969-2.550781 2.90625-3.902344 6.332031-3.902344 9.910156v4.226562c0 8.070313 6.566407 14.632813 14.636719 14.632813h65.007813c4.707031 0 8.535156 3.828125 8.535156 8.535156zm0 0"/><path d="m247.726562 235.132812c-1.179687-3.726562-3.742187-6.769531-7.210937-8.566406-3.472656-1.800781-7.4375-2.140625-11.160156-.957031l-4 1.265625c-3.421875 1.085938-6.292969 3.417969-8.304688 6.742188-2.636719 4.355468-6.882812 7.132812-11.957031 7.816406-6.609375.890625-13.628906-2.730469-16.6875-8.613282-2.347656-4.515624-2.589844-9.53125-.691406-14.125 1.875-4.53125 5.625-7.980468 10.292968-9.460937 4.816407-1.527344 8.933594-.484375 11.535157.660156 3.542969 1.554688 7.214843 1.804688 10.625.722657l4.027343-1.277344c7.691407-2.4375 11.964844-10.679688 9.527344-18.371094l-19.648437-61.96875c-1.898438-5.992188-6.019531-10.886719-11.601563-13.78125-5.578125-2.894531-11.949218-3.4375-17.941406-1.539062l-168.109375 53.300781c-12.367187 3.921875-19.242187 17.175781-15.320313 29.546875l53.304688 168.105468c1.898438 5.992188 6.019531 10.882813 11.601562 13.777344 5.578126 2.894532 11.953126 3.441406 17.941407 1.542969l61.625-19.539063 1.097656 3.464844c-.015625.0625-.046875.167969-.105469.304688-3.84375 8.777344-3.503906 18.699218.9375 27.222656 5.375 10.324219 16.488282 16.882812 27.96875 16.882812 1.332032 0 2.671875-.089843 4.007813-.273437 9.367187-1.269531 17.605469-6.523437 22.601562-14.414063 4.996094-7.890624 6.242188-17.523437 3.421875-26.421874-2.292968-7.234376-7.171875-13.398438-13.734375-17.355469-.109375-.066407-.183593-.121094-.230469-.160157l-1.101562-3.476562 61.621094-19.539062c12.371094-3.921876 19.242187-17.175782 15.320312-29.542969zm-.203124 77.21875-61.96875 19.648438c-3.726563 1.179688-6.769532 3.742188-8.570313 7.210938-1.796875 3.472656-2.140625 7.433593-.957031 11.160156l1.277344 4.027344c1.082031 3.410156 3.402343 6.269531 6.714843 8.269531 2.433594 1.464843 5.65625 4.226562 7.183594 9.046875 1.480469 4.664062.824219 9.71875-1.796875 13.863281-2.660156 4.199219-6.902344 6.890625-11.945312 7.574219-6.570313.894531-13.574219-2.753906-16.65625-8.671875-2.363282-4.546875-2.542969-9.613281-.5-14.277344 1.558593-3.5625 1.808593-7.253906.726562-10.671875l-1.269531-4c-1.976563-6.226562-7.75-10.214844-13.960938-10.214844-1.460937 0-2.945312.222656-4.414062.6875l-61.96875 19.648438c-4.480469 1.421875-9.289063-1.066406-10.710938-5.554688l-53.304687-168.105468c-1.421875-4.484376 1.070312-9.289063 5.554687-10.710938l168.105469-53.304688c2.171875-.6875 4.484375-.488281 6.507812.558594 2.019532 1.050782 3.515626 2.824219 4.203126 4.996094l19.539062 61.621094-3.472656 1.101562c-.058594-.015625-.148438-.042968-.265625-.09375-7.015625-3.082031-14.863281-3.515625-22.101563-1.222656-8.894531 2.820312-16.046875 9.390625-19.621094 18.023438-3.570312 8.628906-3.117187 18.386718 1.242188 26.777343 5.96875 11.488281 19.128906 18.296875 32.003906 16.5625 9.523438-1.285156 17.828125-6.726562 22.785156-14.921875.078126-.128906.144532-.214844.1875-.265625l3.46875-1.097656 19.539063 61.621094c1.421875 4.488281-1.070313 9.292969-5.554687 10.714843zm0 0"/></svg>