<svg height="512pt" viewBox="0 -32 512.0005 512" width="512pt" xmlns="http://www.w3.org/2000/svg"><path d="m510.214844 219.082031c-35.191406-41.421875-74.476563-73.714843-116.761719-95.984375-44.003906-23.171875-90.25-34.917968-137.453125-34.917968s-93.449219 11.746093-137.453125 34.917968c-42.285156 22.269532-81.570313 54.5625-116.761719 95.984375-2.378906 2.796875-2.378906 6.910157 0 9.710938 35.191406 41.421875 74.476563 73.714843 116.761719 95.980469 44.003906 23.171874 90.25 34.921874 137.453125 34.921874s93.449219-11.75 137.453125-34.921874c42.285156-22.265626 81.570313-54.558594 116.761719-95.980469 2.378906-2.800781 2.378906-6.914063 0-9.710938zm-157.503906-19.195312c0 53.328125-43.386719 96.710937-96.710938 96.710937s-96.707031-43.382812-96.707031-96.710937c0-53.324219 43.382812-96.707031 96.707031-96.707031s96.710938 43.382812 96.710938 96.707031zm33.753906 111.613281c-41.828125 22.027344-85.722656 33.195312-130.464844 33.195312s-88.636719-11.167968-130.460938-33.191406c-38.925781-20.5-75.28125-49.941406-108.140624-87.566406 32.859374-37.625 69.210937-67.070312 108.136718-87.566406 19.984375-10.523438 40.441406-18.5625 61.238282-24.09375-25.863282 20.476562-42.484376 52.140625-42.484376 87.609375 0 61.597656 50.113282 111.710937 111.710938 111.710937 61.59375 0 111.707031-50.113281 111.707031-111.710937 0-35.46875-16.621093-67.132813-42.480469-87.609375 20.792969 5.53125 41.25 13.570312 61.234376 24.09375 38.925781 20.496094 75.28125 49.941406 108.140624 87.566406-32.855468 37.625-69.214843 67.066406-108.136718 87.5625zm0 0"/><path d="m256 71.113281c4.140625 0 7.5-3.355469 7.5-7.5v-56.113281c0-4.140625-3.359375-7.5-7.5-7.5s-7.5 3.359375-7.5 7.5v56.113281c0 4.140625 3.359375 7.5 7.5 7.5zm0 0"/><path d="m177.148438 74.984375c1.3125 2.628906 3.960937 4.148437 6.710937 4.148437 1.128906 0 2.273437-.257812 3.351563-.792968 3.703124-1.855469 5.207031-6.359375 3.351562-10.0625l-16.03125-32.066406c-1.851562-3.703126-6.355469-5.207032-10.0625-3.351563-3.703125 1.851563-5.207031 6.355469-3.351562 10.0625zm0 0"/><path d="m324.792969 78.339844c1.074219.539062 2.21875.792968 3.347656.792968 2.75 0 5.398437-1.523437 6.710937-4.148437l16.035157-32.0625c1.851562-3.707031.347656-8.210937-3.355469-10.066406-3.703125-1.851563-8.210938-.347657-10.0625 3.355469l-16.03125 32.0625c-1.851562 3.707031-.351562 8.210937 3.355469 10.066406zm0 0"/><path d="m256 376.757812c-4.140625 0-7.5 3.359376-7.5 7.5v56.113282c0 4.140625 3.359375 7.5 7.5 7.5s7.5-3.359375 7.5-7.5v-56.113282c0-4.140624-3.359375-7.5-7.5-7.5zm0 0"/><path d="m187.210938 369.535156c-3.703126-1.851562-8.210938-.351562-10.0625 3.351563l-16.03125 32.066406c-1.855469 3.703125-.351563 8.210937 3.351562 10.0625 1.078125.539063 2.222656.792969 3.347656.792969 2.75 0 5.402344-1.519532 6.714844-4.148438l16.03125-32.0625c1.855469-3.707031.351562-8.210937-3.351562-10.0625zm0 0"/><path d="m334.851562 372.886719c-1.851562-3.703125-6.355468-5.207031-10.058593-3.351563-3.707031 1.851563-5.207031 6.355469-3.355469 10.0625l16.03125 32.0625c1.316406 2.628906 3.960938 4.148438 6.714844 4.148438 1.125 0 2.269531-.253906 3.347656-.792969 3.703125-1.851563 5.207031-6.355469 3.355469-10.0625zm0 0"/><path d="m212.636719 228.085938c1.082031 0 2.179687-.234376 3.222656-.734376 3.738281-1.78125 5.324219-6.257812 3.539063-9.996093-7.394532-15.503907-4.222657-34.058594 7.894531-46.175781 12.117187-12.113282 30.671875-15.285157 46.175781-7.890626 3.738281 1.78125 8.214844.195313 9.996094-3.542968 1.785156-3.738282.199218-8.214844-3.539063-9.996094-21.222656-10.125-46.636719-5.777344-63.238281 10.824219-16.597656 16.601562-20.949219 42.015625-10.824219 63.238281 1.285157 2.695312 3.972657 4.273438 6.773438 4.273438zm0 0"/><path d="m238.535156 236.488281c-3.742187-1.785156-8.21875-.199219-10 3.539063-1.785156 3.738281-.199218 8.214844 3.539063 10 7.632812 3.640625 15.808593 5.410156 23.921875 5.410156 14.445312 0 28.6875-5.605469 39.316406-16.234375 16.601562-16.601563 20.949219-42.015625 10.824219-63.238281-1.78125-3.738282-6.257813-5.324219-9.996094-3.542969-3.742187 1.785156-5.324219 6.261719-3.542969 10 7.398438 15.5 4.222656 34.054687-7.890625 46.171875-12.117187 12.117188-30.671875 15.289062-46.171875 7.894531zm0 0"/></svg>